<?xml version="1.0" encoding="UTF-8"?>
<svg xmlns="http://www.w3.org/2000/svg" xmlns:xlink="http://www.w3.org/1999/xlink" width="128px" height="128px" viewBox="0 0 128 128" version="1.1">
<g id="surface1">
<path style=" stroke:none;fill-rule:nonzero;fill:rgb(98.431373%,98.431373%,98.431373%);fill-opacity:1;" d="M 89.625 25.75 L 90.375 25.75 L 90.875 26 L 91.125 26.5 L 91 27.375 L 90.125 28.375 L 87.375 30.125 L 85.375 31.375 L 84.125 32.375 L 83.625 33.125 L 82.875 34.125 L 82.25 35.25 L 82 35.625 L 81.75 37.125 L 81.25 38.125 L 81.375 39.625 L 81.75 40 L 82.75 40.25 L 83.75 39.5 L 85.75 38.75 L 86.875 38.375 L 91.25 37 L 93.25 36.25 L 94.875 35.5 L 96.625 34.75 L 98.875 33.875 L 100.375 33.625 L 101.125 34 L 101.5 34.625 L 101.625 35.25 L 101 36.5 L 99.875 37.5 L 99.5 37.5 L 99.5 38.5 L 100.625 38.5 L 103.25 37.625 L 104 37.5 L 105.25 37.5 L 106 38.125 L 106.125 39.375 L 105.875 40.25 L 105.125 41.25 L 104.375 41.75 L 104.125 42.375 L 103.875 42.375 L 103.875 43.375 L 105.875 43.25 L 106.5 43.125 L 107.875 43.125 L 108.375 43.5 L 108.5 43.875 L 108.5 44.875 L 108.125 45.625 L 107.125 46.375 L 105.625 47 L 104 47.375 L 104 47.875 L 104.5 48.125 L 105.25 48 L 106.5 48 L 107.125 48.375 L 107.5 49 L 107.5 50.375 L 106.875 51.625 L 106.25 52.125 L 103.375 53.5 L 102.75 54 L 102.75 54.375 L 103.125 54.625 L 103.125 54.875 L 103.5 55 L 103.5 55.25 L 103.875 55.375 L 103.875 56.125 L 104.625 56.125 L 104.75 56.375 L 104.625 57.5 L 103.875 57.5 L 103.875 58.25 L 103.125 58.25 L 103.125 59 L 102.5 60.375 L 102.375 60.5 L 102.25 61.875 L 102 62.375 L 102 64.25 L 101.5 64 L 101.125 63.625 L 100 63.625 L 98.875 64.25 L 97.875 64.875 L 97 65.125 L 96.375 65.625 L 95.75 66 L 95.375 66.375 L 94.875 68 L 94.625 69.875 L 94.25 70.25 L 93.875 70.25 L 93.75 70.875 L 92.75 72.875 L 91 74.5 L 90.5 74.75 L 89.625 75.75 L 89.375 75.75 L 89.125 76.625 L 88.375 77.375 L 88.125 78 L 87.25 79.125 L 85.875 80.625 L 84.625 82.25 L 82 84.875 L 80.5 86.25 L 79.875 86.875 L 79 87.625 L 77.25 88.75 L 76.125 89.375 L 75.25 90 L 73.5 90.75 L 71.375 91.5 L 70 92.125 L 69.375 92.375 L 68 92.5 L 67.25 92.75 L 64.75 93.25 L 63 93.5 L 58.25 93.5 L 57.75 93.375 L 55.5 93.125 L 55.125 93 L 52.75 92.75 L 50.125 91.875 L 49 91.375 L 45.875 90.125 L 44.875 89.5 L 44.5 88.25 L 44.25 87.625 L 43 87.75 L 40.875 88.75 L 40.125 89.25 L 38.375 90.125 L 37.75 90.5 L 36 91.625 L 34.5 92.375 L 32.875 93.875 L 31.875 94.75 L 30.875 95.75 L 29.875 97.125 L 29.25 98.75 L 28.75 99.75 L 28.5 100.5 L 28.25 100.75 L 28 101.5 L 27.5 101.25 L 27.125 100.625 L 26.5 99.375 L 26 97.375 L 26 94.75 L 26.25 93.625 L 26.5 92.125 L 27.125 90.625 L 28.25 88.5 L 29.125 87.25 L 29.625 86.5 L 29.875 85.875 L 30.25 85.5 L 30.625 84.875 L 31.25 83.875 L 31.5 83.375 L 31.5 82.875 L 30.625 83 L 30.5 83.375 L 29.75 83.75 L 29.125 84.375 L 28.375 85.25 L 28.125 85.25 L 27.875 85.75 L 26.5 88 L 26.125 88.5 L 25.375 90 L 25 90.5 L 24.75 91.625 L 24.125 91.5 L 23 88.5 L 22.625 87 L 22.75 84.625 L 23 83.5 L 23.125 81.625 L 23.5 80.125 L 23.375 79.625 L 23.5 78.875 L 23 78.5 L 22.5 78.25 L 22.125 77.125 L 22 75.125 L 22 73.25 L 22.5 69.375 L 23.125 67.625 L 23.875 66.125 L 24.5 65 L 25.5 63.625 L 27 60.875 L 26.875 60.25 L 26.5 59.875 L 26.375 58.875 L 26.75 56.875 L 27.25 54.75 L 27.875 52.875 L 28.5 51.375 L 29 50 L 30.375 47.25 L 30.75 46.75 L 31.375 45.625 L 32.625 43.75 L 34.375 41.25 L 35.75 39.75 L 36.625 38.75 L 37.125 38.125 L 38.5 37 L 40.125 35.625 L 41.75 34.5 L 43.125 33.625 L 43.875 33.25 L 45.375 32.25 L 47.5 31.25 L 50.875 30.125 L 52.375 29.75 L 55.125 29.375 L 56.125 29.125 L 63.5 29.125 L 65.75 29.5 L 68.25 30.125 L 72.75 31.625 L 74.5 32.5 L 75.75 33.25 L 76.5 34 L 77.375 33.75 L 79 33.5 L 79.625 33 L 80.375 32.75 L 81 32 L 82 30.75 L 83 29.875 L 84.75 28.625 L 86.375 27.75 L 87.875 26.75 L 89.25 25.875 Z M 101.5 54.25 L 101.5 54.5 L 101.75 54.375 Z M 98 59.125 L 97 59.375 L 95.875 59.75 L 95.25 60.125 L 95.25 60.75 L 95.5 60.875 L 95.5 62 L 95.75 62.125 L 95.875 63 L 96.5 62.875 L 96.875 62.625 L 96.875 62.125 L 97.125 62.125 L 97.125 62.5 L 98 62.375 L 98.5 61.875 L 98.5 61.5 L 98 61.5 L 97.875 61.75 L 97.375 61.75 L 98.125 61.125 L 98.125 60.5 L 97.75 60.375 L 98.25 59.75 L 98.5 59.625 L 98.5 59.125 Z M 87.375 63.125 L 85.375 63.875 L 84.25 64.25 L 82.125 65 L 81.5 65.625 L 81.25 66 L 81.25 67.125 L 82.125 68.875 L 82.375 68.875 L 82.5 69.25 L 83.5 69.875 L 84.5 70.125 L 85.5 70 L 85.875 69.875 L 86.125 70 L 87.125 70 L 87.75 69.375 L 88.5 68.375 L 88.625 68.125 L 88.75 67 L 88.75 63.625 L 88.25 63.125 Z M 79.5 68.25 L 79.625 70 L 79.75 70.125 L 79.875 71 L 80.5 71.375 L 80.875 71.375 L 81 71 L 81.25 70.875 L 81 70.125 L 80.125 68.875 L 79.875 68.25 Z M 79.5 68.25 "/>
<path style=" stroke:none;fill-rule:nonzero;fill:rgb(93.725491%,9.411765%,16.470589%);fill-opacity:1;" d="M 51.25 40 L 66.25 40 L 67.875 40.25 L 68.875 40.75 L 70.25 42.625 L 70.375 43 L 70.375 69.125 L 69.5 70.75 L 68.125 71.75 L 67.375 72 L 51.25 72 L 50 71.5 L 49.25 71 L 48.5 70.125 L 48.25 69.375 L 48.125 64 L 48.125 43.125 L 48.375 42 L 49.125 41 L 50.5 40.25 Z M 51.25 40 "/>
<path style=" stroke:none;fill-rule:nonzero;fill:rgb(93.725491%,9.803922%,16.862746%);fill-opacity:1;" d="M 56.125 29.125 L 63.5 29.125 L 65.75 29.5 L 68.25 30.125 L 72.75 31.625 L 74.5 32.5 L 75.75 33.25 L 76.25 33.75 L 76.125 34.25 L 74.875 35.75 L 73.625 36.75 L 72.75 37.75 L 72.125 38.75 L 71.75 40.125 L 71.5 41 L 70.875 40.5 L 70.125 39.5 L 68.625 38.625 L 67 38.125 L 54.25 38 L 51.25 38 L 49.375 38.75 L 47.875 39.875 L 47 41.125 L 46.375 42.625 L 46.25 44 L 46.125 49 L 40.75 51.25 L 38.75 52.25 L 35.375 54 L 33.875 54.875 L 32.5 55.625 L 31.75 56.25 L 30.625 56.875 L 29.25 57.875 L 27.5 59.25 L 27.125 59.375 L 27 59.75 L 26.75 59.5 L 26.75 57.875 L 27.125 55.125 L 27.875 52.875 L 28.5 51.375 L 29 50 L 30.375 47.25 L 30.75 46.75 L 31.375 45.625 L 32.625 43.75 L 34.375 41.25 L 35.75 39.75 L 36.625 38.75 L 37.125 38.125 L 38.5 37 L 40.125 35.625 L 41.75 34.5 L 43.125 33.625 L 43.875 33.25 L 45.375 32.25 L 47.5 31.25 L 50.875 30.125 L 52.375 29.75 L 55.125 29.375 Z M 56.125 29.125 "/>
<path style=" stroke:none;fill-rule:nonzero;fill:rgb(6.666667%,32.156864%,24.705882%);fill-opacity:1;" d="M 74.75 68.875 L 75.5 68.875 L 76.25 70.875 L 77.25 72.375 L 78.75 74 L 80.625 75.25 L 82.75 76.25 L 84.625 76.75 L 86.625 76.75 L 87.625 76.5 L 88.625 76.5 L 88.375 77.125 L 88.125 77.125 L 88 78.125 L 87.25 79.125 L 85.875 80.625 L 84.625 82.25 L 82 84.875 L 80.5 86.25 L 79.875 86.875 L 79 87.625 L 77.25 88.75 L 76.125 89.375 L 75.25 90 L 73.5 90.75 L 71.375 91.5 L 70 92.125 L 69.375 92.375 L 68 92.5 L 67.25 92.75 L 64.75 93.25 L 63 93.5 L 58.25 93.5 L 57.75 93.375 L 55.5 93.125 L 55.125 93 L 52.75 92.75 L 50.125 91.875 L 49 91.375 L 45.875 90.125 L 44.875 89.5 L 44.875 88.875 L 46.875 87.75 L 50.375 86.125 L 56 83.75 L 60.375 82 L 63 81 L 66 79.75 L 68.875 79.625 L 74 79.5 L 74.875 78.875 L 75 78.625 L 75 73.75 L 74.375 72.5 L 73.875 72.125 L 71.25 71.875 L 71.625 70.75 L 72 70.125 L 74.375 69 Z M 74.75 68.875 "/>
<path style=" stroke:none;fill-rule:nonzero;fill:rgb(7.058824%,79.215688%,34.117648%);fill-opacity:1;" d="M 45.75 51.125 L 46.25 51.25 L 46.25 61.625 L 42.375 63.25 L 37.375 65.75 L 34.5 67.375 L 32.125 68.875 L 31.25 69.375 L 30.125 70.125 L 29.375 70.75 L 28.625 71.25 L 28.125 71.5 L 28.125 71.75 L 27.125 72.625 L 26.5 73.5 L 25.875 74.125 L 24.375 76.125 L 24 76.875 L 23.625 76.875 L 23.375 77.5 L 23.125 78 L 22.75 77.875 L 22.5 76.875 L 22.5 75.625 L 22.25 75.625 L 22.125 75 L 22.125 72.125 L 22.5 69.375 L 23.125 67.625 L 23.75 66.5 L 24 66.5 L 24.25 66 L 25.75 64 L 26.625 63 L 27.75 61.875 L 29.125 60.75 L 31.25 59.125 L 34.25 57.125 L 36.5 55.875 L 38.875 54.625 L 42.125 53 L 43.125 52.375 Z M 45.75 51.125 "/>
<path style=" stroke:none;fill-rule:nonzero;fill:rgb(7.058824%,32.549021%,25.098041%);fill-opacity:1;" d="M 42.75 77.75 L 43.375 77.75 L 43.75 78.375 L 44.25 79.125 L 44.75 79.5 L 48.625 79.625 L 60.375 79.625 L 59.875 80.125 L 55.375 81.875 L 50.625 83.875 L 47.125 85.5 L 45.75 86.125 L 44.625 86.5 L 44 87 L 41.5 88.25 L 41.125 88.625 L 40.125 89.25 L 38.375 90.125 L 37.75 90.5 L 36 91.625 L 34.5 92.375 L 32.875 93.875 L 31.875 94.75 L 30.875 95.75 L 29.875 97.125 L 29.25 98.75 L 28.75 99.75 L 28.5 100.5 L 28.25 100.75 L 28 101.5 L 27.5 101.25 L 27.125 100.625 L 26.5 99.375 L 26 97.375 L 26 94.75 L 26.25 93.625 L 26.5 92.125 L 27.125 90.625 L 27.875 89.25 L 28.125 89.25 L 28.375 88.625 L 29.25 87.375 L 30.375 86 L 31.5 84.75 L 32.875 83.625 L 34.5 82.375 L 37 80.75 L 41.25 78.5 Z M 42.75 77.75 "/>
<path style=" stroke:none;fill-rule:nonzero;fill:rgb(7.058824%,79.215688%,34.117648%);fill-opacity:1;" d="M 45.375 64 L 46.125 64 L 46.375 69.375 L 47.25 71.375 L 47.25 71.75 L 45 72 L 44.25 72.25 L 43.75 72.875 L 43.625 75.25 L 40.375 76.75 L 37.625 78.125 L 34.25 80.125 L 32.5 81.375 L 31.25 82.375 L 30.5 82.75 L 29.375 83.75 L 28.5 84.75 L 27.625 85.625 L 27 87.125 L 26.125 88.5 L 25.375 90 L 25 90.5 L 24.75 91.625 L 24.125 91.5 L 23 88.5 L 22.625 87 L 22.75 84.625 L 23.125 82.75 L 24 80.375 L 25 78.625 L 26.125 77 L 27.5 75.375 L 29.25 73.625 L 31 72.25 L 32 71.375 L 33.25 70.375 L 36.5 68.5 L 39.25 67 L 44.5 64.375 Z M 45.375 64 "/>
<path style=" stroke:none;fill-rule:nonzero;fill:rgb(65.490198%,8.235294%,15.294118%);fill-opacity:1;" d="M 69.25 41.75 L 69.75 41.875 L 70.375 43 L 70.375 69.125 L 69.5 70.75 L 68.125 71.75 L 67.375 72 L 51.25 72 L 50 71.5 L 49.25 71 L 48.5 70.125 L 48.375 69.25 L 49.25 69.375 L 50.875 69.375 L 51.625 68.875 L 53.25 68.125 L 55.875 67 L 58 66 L 59.625 65.625 L 59.75 65.125 L 60 65.125 L 60.125 64.625 L 60.375 64.5 L 60.5 64 L 60.125 63.875 L 60.125 63.25 L 59.875 63.25 L 60.125 62.5 L 61.125 61.875 L 61.375 61.875 L 61.625 61.25 L 62.75 60.875 L 63.375 60.625 L 64.5 60.5 L 64.25 60.125 L 65.25 60.125 L 66.125 59.625 L 66.5 58.875 L 66.5 57.75 L 66.25 57.125 L 66.625 57.125 L 67 58.5 L 68 58.625 L 68.25 54.125 L 68.375 51 L 68.375 46.25 L 68.25 42.125 Z M 69.25 41.75 "/>
<path style=" stroke:none;fill-rule:nonzero;fill:rgb(98.431373%,98.431373%,98.431373%);fill-opacity:1;" d="M 54.5 42.875 L 65.125 42.875 L 66.25 43.375 L 67.25 44.25 L 67.75 45.125 L 67.75 51 L 67.125 52.25 L 66.25 53.125 L 65 53.625 L 64.375 53.75 L 54.125 53.75 L 52.625 53.125 L 51.5 52.125 L 51 51.25 L 50.875 50.625 L 50.875 45.375 L 51.625 44 L 52.75 43.125 L 53.125 43 Z M 54.5 42.875 "/>
<path style=" stroke:none;fill-rule:nonzero;fill:rgb(93.725491%,9.803922%,16.862746%);fill-opacity:1;" d="M 89.625 25.75 L 90.375 25.75 L 90.875 26 L 91.125 26.5 L 91 27.375 L 90.125 28.375 L 87.375 30.125 L 85.375 31.375 L 84.125 32.375 L 83.625 33.125 L 82.875 34.125 L 82.25 35.25 L 82 35.625 L 81.75 37.125 L 81.25 38.125 L 81 39.375 L 81.875 40.875 L 81.875 44 L 81.625 44.5 L 81.75 48.625 L 82 48.75 L 82 51.875 L 81.625 52.5 L 81 53 L 75.625 53 L 74.625 52.875 L 74.25 52.25 L 74.125 44.25 L 73.5 43.5 L 73.25 42.75 L 73.25 40.25 L 73.75 39 L 75.375 37.25 L 76.75 36.375 L 77 36.375 L 77.25 35.75 L 78.375 34 L 78.625 33.625 L 79.375 33.25 L 79.625 33 L 80.375 32.75 L 81 32 L 82 30.75 L 83 29.875 L 84.75 28.625 L 86.375 27.75 L 87.875 26.75 L 89.25 25.875 Z M 89.625 25.75 "/>
<path style=" stroke:none;fill-rule:nonzero;fill:rgb(8.235294%,79.215688%,34.901962%);fill-opacity:1;" d="M 100 33.625 L 100.75 33.75 L 101.375 34.375 L 101.625 35.25 L 101.25 36.125 L 100.625 36.5 L 99.375 37.375 L 97.375 38.25 L 95.125 39.125 L 93.5 39.75 L 91.875 40.5 L 91.125 41.125 L 90.625 42.5 L 92.25 42.25 L 94.875 41.25 L 96 41 L 97 41 L 97.625 41.5 L 97.625 42.875 L 97 43.875 L 96 44.75 L 95.25 45.375 L 92.625 46.375 L 91.375 46.75 L 90.625 47.125 L 89.75 47.375 L 88.625 47.875 L 86.5 48.875 L 84.375 49.75 L 83.625 49.875 L 83.5 47.25 L 83.375 41.25 L 83.25 40.125 L 84.75 39.375 L 87.5 38.375 L 87.75 38.375 L 87.75 38.125 L 92.25 36.625 L 94.375 35.75 L 96 35 L 98.875 33.875 Z M 100 33.625 "/>
<path style=" stroke:none;fill-rule:nonzero;fill:rgb(9.411765%,21.960784%,22.352941%);fill-opacity:1;" d="M 75.625 54.25 L 79.625 54.25 L 79.875 54.375 L 79.875 59.5 L 79 59.5 L 79.125 59.75 L 79.375 65.5 L 79.625 67 L 80.5 69 L 81.25 70.125 L 82.375 71 L 83.625 71.625 L 84.75 72 L 86.875 72 L 88.125 71.375 L 89.625 70 L 90 69.5 L 90.375 68.5 L 90.625 67.25 L 90.625 64.75 L 90.25 62.125 L 89.625 58.875 L 89 57.125 L 89 56.25 L 89.875 55.75 L 91 55.75 L 92.25 59.375 L 92.75 60.75 L 93.125 62.5 L 93.125 67.875 L 92.625 69.5 L 91.875 70.875 L 91 72.25 L 90.5 72.75 L 90.25 72.75 L 90 73.25 L 89 74 L 87.75 74.5 L 86.5 74.75 L 85.125 74.75 L 83.125 74.375 L 80.75 73.25 L 79.125 72 L 78.125 70.625 L 77.25 69.125 L 76.75 67.5 L 76.5 65.875 L 76.5 59.5 L 75.75 59.5 L 75.5 59.125 L 75.5 54.5 Z M 79.5 68.25 L 79.625 70 L 79.75 70.125 L 79.875 71 L 80.5 71.375 L 80.875 71.375 L 81 71 L 81.25 70.875 L 81 70.125 L 80.125 68.875 L 79.875 68.25 Z M 79.5 68.25 "/>
<path style=" stroke:none;fill-rule:nonzero;fill:rgb(7.058824%,78.823531%,34.117648%);fill-opacity:1;" d="M 91.625 49.125 L 93.125 49.125 L 93.875 50 L 93.875 51.25 L 92.75 53.375 L 92.625 54.25 L 94.125 53.75 L 97 52.375 L 98.25 52.25 L 98.875 52.875 L 99 53.375 L 99 54.25 L 98.75 55 L 97.75 55.875 L 96.125 57 L 94.875 57.375 L 93.5 58 L 93.25 58 L 92.875 57 L 91.75 56.375 L 91.625 55.125 L 91.125 54 L 90.375 53.875 L 88.125 54.625 L 87.125 55.25 L 86.875 55.5 L 87 56.625 L 87.75 57.75 L 88.125 58.75 L 88.125 60.625 L 84.625 61.875 L 81.375 63 L 80.75 63 L 80.625 62.5 L 80.625 61.25 L 81.125 60.875 L 81.5 60.875 L 81.5 54.5 L 82.625 53.875 L 83.125 53.25 L 83.5 52.375 L 85.25 51.5 L 87.375 50.75 L 90.5 49.625 Z M 91.625 49.125 "/>
<path style=" stroke:none;fill-rule:nonzero;fill:rgb(9.019608%,21.960784%,22.352941%);fill-opacity:1;" d="M 46 73.875 L 73.25 73.875 L 73.25 77.625 L 45.625 77.625 L 45.5 77.5 L 45.5 74 Z M 46 73.875 "/>
<path style=" stroke:none;fill-rule:nonzero;fill:rgb(7.058824%,79.215688%,34.117648%);fill-opacity:1;" d="M 62.125 44.375 L 64.625 44.375 L 65.375 44.5 L 65.75 45.5 L 65.875 46.25 L 65.875 50.625 L 65.125 51.75 L 65 51.875 L 61.5 51.875 L 53.625 51.75 L 53.125 51.5 L 52.625 50.5 L 52.5 49.75 L 52.5 48.5 L 53.375 47.75 L 58.125 45.625 L 60.75 44.625 Z M 62.125 44.375 "/>
<path style=" stroke:none;fill-rule:nonzero;fill:rgb(6.27451%,23.921569%,22.352941%);fill-opacity:1;" d="M 58.625 79.625 L 60.375 79.625 L 59.875 80.125 L 55.375 81.875 L 50.625 83.875 L 47.125 85.5 L 45.75 86.125 L 44.625 86.5 L 44 87 L 41.5 88.25 L 41.125 88.625 L 40.125 89.25 L 38.375 90.125 L 37.75 90.5 L 36 91.625 L 34.5 92.375 L 32.875 93.875 L 31.875 94.75 L 30.875 95.75 L 29.875 97.125 L 29.25 98.75 L 28.75 99.75 L 28 100 L 27.75 100.75 L 27.375 100.5 L 27.25 100.125 L 27.25 98.75 L 27.875 96.75 L 28.5 95.5 L 29.5 94.125 L 30.625 92.875 L 31.625 91.875 L 33.125 90.75 L 35 89.375 L 37.75 87.75 L 39.875 86.625 L 45.875 83.625 L 48.875 82.25 L 50.75 81.25 L 53.375 80.25 L 53.25 80.125 L 50 80 L 50 79.875 Z M 58.625 79.625 "/>
<path style=" stroke:none;fill-rule:nonzero;fill:rgb(8.627451%,47.058824%,29.019609%);fill-opacity:1;" d="M 45.875 59 L 46.125 59 L 46.25 61.625 L 42.375 63.25 L 37.375 65.75 L 34.5 67.375 L 32.125 68.875 L 31.25 69.375 L 30.125 70.125 L 29.375 70.75 L 28.625 71.25 L 28.125 71.5 L 28.125 71.75 L 27.125 72.625 L 26.5 73.5 L 25.875 74.125 L 24.375 76.125 L 24 76.875 L 23.625 76.875 L 23.375 77.5 L 23.125 78 L 22.75 77.875 L 22.5 76.875 L 22.5 76.125 L 22.75 75.875 L 23.25 74.625 L 24.5 72.625 L 26 71 L 28 69 L 29.875 67.625 L 31.75 66.375 L 35 64.375 L 39.75 61.875 L 44.25 59.875 L 45.75 59.125 Z M 45.875 59 "/>
<path style=" stroke:none;fill-rule:nonzero;fill:rgb(7.058824%,28.235295%,23.529412%);fill-opacity:1;" d="M 87.625 76.5 L 88.625 76.5 L 88.375 77.125 L 88.125 77.125 L 88 78.125 L 87.25 79.125 L 85.875 80.625 L 84.625 82.25 L 82 84.875 L 80.5 86.25 L 79.875 86.875 L 79 87.625 L 77.25 88.75 L 76.125 89.375 L 75.25 90 L 73.5 90.75 L 71.375 91.5 L 70.875 91.625 L 71 91.25 L 72 90.625 L 72.125 90 L 71.375 90.375 L 71.25 90.5 L 70.125 90.625 L 69.875 90.75 L 69.125 90.75 L 68.75 90 L 70 89.375 L 73 88.125 L 74.625 87.5 L 75.5 87 L 76.125 86.5 L 76.375 86.5 L 76.5 86.125 L 77.125 85.875 L 77.375 85.375 L 78.75 84.25 L 80.75 82.375 L 81.75 81.375 L 83.125 79.625 L 83.375 78.875 L 83.375 76.625 L 84.625 76.75 L 86.625 76.75 Z M 87.625 76.5 "/>
<path style=" stroke:none;fill-rule:nonzero;fill:rgb(9.019608%,21.960784%,22.352941%);fill-opacity:1;" d="M 75.625 54.25 L 79.625 54.25 L 79.875 54.375 L 79.875 59.5 L 79 59.5 L 79.125 59.75 L 79.375 65.5 L 79.625 67 L 80.5 69 L 81.25 70.125 L 82.125 70.875 L 82.25 71.625 L 82.625 71.625 L 82.625 71.875 L 81.5 72.25 L 81.125 72.75 L 80.875 73.25 L 79.75 72.5 L 79.125 72 L 78.125 70.625 L 77.25 69.125 L 76.75 67.5 L 76.5 65.875 L 76.5 59.5 L 75.75 59.5 L 75.5 59.125 L 75.5 54.5 Z M 79.5 68.25 L 79.625 70 L 79.75 70.125 L 79.875 71 L 80.5 71.375 L 80.875 71.375 L 81 71 L 81.25 70.875 L 81 70.125 L 80.125 68.875 L 79.875 68.25 Z M 79.5 68.25 "/>
<path style=" stroke:none;fill-rule:nonzero;fill:rgb(65.882355%,8.235294%,15.294118%);fill-opacity:1;" d="M 45.875 42.875 L 46.125 42.875 L 46.125 49 L 40.75 51.25 L 38.75 52.25 L 35.375 54 L 33.875 54.875 L 32.5 55.625 L 31.75 56.25 L 30.625 56.875 L 30 57.25 L 29.75 57.25 L 29.625 56.625 L 30.125 55.375 L 31.625 53.625 L 32.25 53 L 34.625 51.25 L 36.25 50.125 L 38.125 49 L 41.125 47.25 L 43.5 46 L 45.375 44.875 L 45.625 44.75 Z M 45.875 42.875 "/>
<path style=" stroke:none;fill-rule:nonzero;fill:rgb(9.019608%,47.450981%,29.019609%);fill-opacity:1;" d="M 43.5 72.625 L 43.75 73.125 L 43.625 75.25 L 40.375 76.75 L 37.625 78.125 L 34.25 80.125 L 32.5 81.375 L 31.25 82.375 L 30.5 82.75 L 29.375 83.75 L 28.5 84.75 L 27.625 85.625 L 27 87.125 L 26.625 87.75 L 26.25 87.75 L 26 88.375 L 25.375 89.5 L 25.125 90 L 24.875 90 L 24.625 91.375 L 24.375 91.25 L 23.875 90.25 L 23.875 89.25 L 24.125 88.25 L 24.875 86.625 L 26.125 84.375 L 27.5 82.75 L 30.25 80 L 32 78.75 L 35.125 76.875 L 38.625 75 L 43.375 72.75 Z M 43.5 72.625 "/>
<path style=" stroke:none;fill-rule:nonzero;fill:rgb(3.529412%,11.764706%,14.509805%);fill-opacity:1;" d="M 81.625 42.25 L 81.875 42.25 L 81.875 44 L 81.625 44.5 L 81.75 48.625 L 82 48.75 L 82 51.875 L 81.625 52.5 L 81 53 L 75.625 53 L 74.625 52.875 L 74.25 52.25 L 74.25 46.375 L 74.375 44.25 L 75.75 44.25 L 76.375 43.875 L 77.125 43.875 L 78.125 44.75 L 78.875 45.75 L 79.125 46.5 L 79.125 49.125 L 79 49.5 L 78.375 49.5 L 77.875 47.25 L 77.375 46.25 L 76.875 45.75 L 76.875 45.5 L 76.25 45.375 L 76.25 50.625 L 80.125 50.625 L 80 44.375 L 79.875 43.375 L 78.875 43.375 L 79.375 43.125 L 80.25 42.875 L 80.75 42.625 L 81.5 42.5 Z M 81.625 42.25 "/>
<path style=" stroke:none;fill-rule:nonzero;fill:rgb(65.490198%,8.235294%,15.294118%);fill-opacity:1;" d="M 81.375 35.625 L 81.5 35.625 L 81.5 37 L 81 38 L 80.875 39.5 L 81.375 41 L 81.25 41.5 L 81.125 42.25 L 81.5 42.625 L 80.375 42.875 L 80 43.125 L 79.375 43.25 L 79.875 43.375 L 80.125 44.375 L 80.125 50.625 L 76.25 50.625 L 76.25 45.375 L 76.875 45.5 L 77.75 46.625 L 78.25 48.125 L 78.375 49.5 L 79 49.5 L 79 46.5 L 78.5 45.375 L 77.375 44.125 L 77.125 44 L 76.375 44 L 75.75 44.375 L 74.625 44.375 L 74.375 44.25 L 74.375 46.375 L 74.25 46.375 L 74.125 44.25 L 74.125 43.75 L 75.25 42.5 L 75.625 42.125 L 75.625 42.375 L 77.75 40.75 L 79.75 36.75 L 80.125 36.125 L 81.25 35.875 Z M 81.375 35.625 "/>
<path style=" stroke:none;fill-rule:nonzero;fill:rgb(66.274512%,8.235294%,15.294118%);fill-opacity:1;" d="M 73.875 32.5 L 75.25 33.25 L 75.875 33.75 L 76 34.375 L 74.875 35.75 L 73.625 36.75 L 72.75 37.75 L 72.125 38.75 L 71.75 40.125 L 71.5 41 L 70.875 40.5 L 70.125 39.5 L 68.625 38.625 L 67 38.125 L 54.25 38 L 51.5 37.875 L 51.75 37.625 L 66 37.625 L 65.875 36.625 L 68.125 35.625 L 69.375 34.75 L 70.625 34.25 L 71.375 33.625 L 71.625 33.625 L 71.875 33.125 L 72.25 32.75 L 73.875 32.75 Z M 73.875 32.5 "/>
<path style=" stroke:none;fill-rule:nonzero;fill:rgb(65.098041%,8.235294%,15.294118%);fill-opacity:1;" d="M 46 73.875 L 56 74.125 L 56.375 74.375 L 56 74.375 L 56 74.625 L 56.5 74.375 L 57.5 74.375 L 57.5 74.875 L 56.375 75.25 L 55.5 75.5 L 54.875 76.75 L 54.875 77.375 L 51.5 77.625 L 45.625 77.625 L 45.5 77.5 L 45.5 74 Z M 46 73.875 "/>
<path style=" stroke:none;fill-rule:nonzero;fill:rgb(7.450981%,16.470589%,18.431373%);fill-opacity:1;" d="M 89.625 25.75 L 90.375 25.75 L 90.875 26 L 91.125 26.5 L 91 27.375 L 90.125 28.375 L 87.375 30.125 L 85.375 31.375 L 85.125 31.625 L 84.25 32 L 83 33.5 L 82.25 34.625 L 81.875 35.25 L 81.5 35.5 L 80.25 34.375 L 80.125 33.625 L 80.875 32.25 L 81.375 31.5 L 82 30.75 L 83 29.875 L 84.75 28.625 L 86.375 27.75 L 87.875 26.75 L 89.25 25.875 Z M 89.625 25.75 "/>
<path style=" stroke:none;fill-rule:nonzero;fill:rgb(9.019608%,47.450981%,29.411766%);fill-opacity:1;" d="M 97.375 41.625 L 97.625 41.625 L 97.625 42.875 L 97 43.875 L 96 44.75 L 95.25 45.375 L 92.625 46.375 L 91.375 46.75 L 90.625 47.125 L 89.75 47.375 L 88.625 47.875 L 86.5 48.875 L 84.375 49.75 L 83.625 49.875 L 83.625 47.5 L 84.875 47 L 87.875 45.875 L 91.375 44.375 L 96 42.5 L 97.25 42.25 Z M 97.375 41.625 "/>
<path style=" stroke:none;fill-rule:nonzero;fill:rgb(83.92157%,8.627451%,15.294118%);fill-opacity:1;" d="M 66.25 57.125 L 66.625 57.125 L 67 58.5 L 68 58.625 L 68.125 58.375 L 68.25 58.5 L 68.125 60.5 L 67.875 61.625 L 67.25 62.375 L 66.875 62.375 L 66.625 63 L 65.5 63.75 L 64.625 64.125 L 62.375 64.625 L 60.75 65.125 L 60 65.5 L 59.625 65.5 L 59.75 65.125 L 60 65.125 L 60.125 64.625 L 60.375 64.5 L 60.5 64 L 60.125 63.875 L 60.125 63.25 L 59.875 63.25 L 60.125 62.5 L 61.125 61.875 L 61.375 61.875 L 61.625 61.25 L 62.75 60.875 L 63.375 60.625 L 64.5 60.5 L 64.25 60.125 L 65.25 60.125 L 66.125 59.625 L 66.5 58.875 L 66.5 57.75 Z M 66.25 57.125 "/>
<path style=" stroke:none;fill-rule:nonzero;fill:rgb(5.882353%,23.529412%,21.568628%);fill-opacity:1;" d="M 68.375 90 L 68.875 90.125 L 69.125 90.625 L 69.875 90.625 L 70.125 90.5 L 71.25 90.375 L 71.75 90 L 72.125 90 L 72.25 90.625 L 71 91.375 L 70.875 91.75 L 69.375 92.375 L 68 92.5 L 67.25 92.75 L 65.375 93.125 L 62.875 93.125 L 62.875 92.875 L 62 92.875 L 62 93.125 L 62.25 93.25 L 58.625 93.25 L 58.5 91.375 L 62.5 91.25 L 66.375 90.375 Z M 68.375 90 "/>
<path style=" stroke:none;fill-rule:nonzero;fill:rgb(7.058824%,79.215688%,34.117648%);fill-opacity:1;" d="M 73.75 55.25 L 73.875 55.625 L 73.875 59.625 L 74.625 61.125 L 75 61.625 L 75 66.75 L 72.75 67.5 L 72.25 67.5 L 72.25 57.5 L 72.375 55.875 Z M 73.75 55.25 "/>
<path style=" stroke:none;fill-rule:nonzero;fill:rgb(65.098041%,8.627451%,15.686275%);fill-opacity:1;" d="M 75.625 54.25 L 79.625 54.25 L 79.875 54.375 L 79.875 59.5 L 79 59.5 L 79 59.75 L 77.375 59.75 L 76.625 59.625 L 76.5 59.875 L 76.5 59.5 L 75.75 59.5 L 75.5 59.125 L 75.5 54.5 Z M 75.625 54.25 "/>
<path style=" stroke:none;fill-rule:nonzero;fill:rgb(83.92157%,9.411765%,16.078432%);fill-opacity:1;" d="M 30 48.5 L 30.125 48.5 L 30.125 49.25 L 30.375 49.25 L 30.375 49.5 L 31 49.75 L 31.75 50.25 L 31.5 50.375 L 30.75 50.25 L 30.375 51.75 L 30.5 52.5 L 31 52.5 L 31.25 52 L 31.625 52.125 L 30.875 53.125 L 30.625 54.5 L 29.875 55 L 29.125 55.125 L 29.375 55.75 L 30 55.625 L 29.75 56.875 L 29.875 57.375 L 28.125 58.75 L 27.375 59.375 L 27.125 59.375 L 27 59.75 L 26.75 59.5 L 26.75 57.875 L 27.125 55.125 L 27.75 53.25 L 28.375 52.25 L 28.75 51.375 L 29 50.5 Z M 30 48.5 "/>
<path style=" stroke:none;fill-rule:nonzero;fill:rgb(3.529412%,12.54902%,14.901961%);fill-opacity:1;" d="M 89.125 70.5 L 89.375 70.5 L 89.25 71.625 L 88.625 71.875 L 89.25 72.375 L 90.25 72.75 L 90 73.25 L 89 74 L 87.75 74.5 L 86.5 74.75 L 85.125 74.75 L 83.125 74.375 L 81 73.375 L 80.875 73.125 L 81.25 72.375 L 81.75 72 L 82.625 71.875 L 82.625 71.625 L 82.25 71.625 L 82.125 71 L 82.75 71.25 L 84.75 72 L 86.875 72 L 88.125 71.375 Z M 89.125 70.5 "/>
<path style=" stroke:none;fill-rule:nonzero;fill:rgb(7.058824%,79.215688%,34.117648%);fill-opacity:1;" d="M 104.625 37.625 L 105.5 37.625 L 106 38.125 L 106.125 39.375 L 105.875 40.25 L 105.25 41 L 103 42 L 101 42.5 L 100.25 42.5 L 99.75 42.125 L 99.375 41.25 L 99.5 40 L 99.875 39.375 L 101.875 38.75 L 103.75 38 Z M 104.625 37.625 "/>
<path style=" stroke:none;fill-rule:nonzero;fill:rgb(83.92157%,8.627451%,15.294118%);fill-opacity:1;" d="M 106.375 48.375 L 107.125 48.375 L 107.5 49 L 107.5 50.375 L 106.875 51.625 L 106.125 52 L 105 52.375 L 103.5 53.125 L 102.125 53.625 L 101.25 53.5 L 100.75 52.75 L 100.75 51.5 L 101.375 50.875 L 102.75 50 L 106 48.5 Z M 106.375 48.375 "/>
<path style=" stroke:none;fill-rule:nonzero;fill:rgb(90.980393%,96.470588%,96.470588%);fill-opacity:1;" d="M 53.25 51.5 L 53.625 51.625 L 61.5 51.75 L 64.5 51.875 L 64.5 52.125 L 64.25 52.125 L 64.375 52.625 L 65.125 52.875 L 65 53.375 L 64 53.625 L 55.25 53.625 L 55 53.5 L 53.625 53.375 L 53.5 52.875 L 53.625 52.25 L 53.25 51.75 Z M 53.25 51.5 "/>
<path style=" stroke:none;fill-rule:nonzero;fill:rgb(97.647059%,98.039216%,98.039216%);fill-opacity:1;" d="M 78.25 43.375 L 79.875 43.375 L 80.125 44.375 L 80.125 50.625 L 76.25 50.625 L 76.25 45.375 L 76.875 45.5 L 77.75 46.625 L 78.25 48.125 L 78.375 49.5 L 79 49.5 L 79 46.5 L 78.5 45.375 L 77.375 44.125 L 77.125 44 L 77.125 43.625 Z M 78.25 43.375 "/>
<path style=" stroke:none;fill-rule:nonzero;fill:rgb(8.627451%,47.450981%,29.019609%);fill-opacity:1;" d="M 87.75 58.25 L 88.125 58.75 L 88.125 60.625 L 84.625 61.875 L 81.375 63 L 80.75 63 L 80.625 62.5 L 80.625 61.25 L 81.125 60.875 L 81.5 60.875 L 81.625 60.5 L 87.125 58.625 Z M 87.75 58.25 "/>
<path style=" stroke:none;fill-rule:nonzero;fill:rgb(6.666667%,34.901962%,25.490198%);fill-opacity:1;" d="M 101.625 57.25 L 102.75 57.375 L 103.25 57.75 L 103.375 58.25 L 103.125 58.25 L 103.125 59 L 102.5 60.125 L 98.5 62.125 L 98.25 62 L 98.5 61.5 L 98 61.5 L 97.875 61.875 L 97.25 61.875 L 97.375 61.625 L 97.625 61.625 L 97.75 61.25 L 98 61.125 L 98 60.5 L 97.75 60.375 L 98 59.875 L 98.5 59.625 L 98.5 59.125 L 97.375 59.25 L 97.875 58.875 L 100.625 57.625 Z M 101.625 57.25 "/>
<path style=" stroke:none;fill-rule:nonzero;fill:rgb(93.333334%,11.764706%,18.431373%);fill-opacity:1;" d="M 106.875 43.125 L 107.875 43.125 L 108.375 43.5 L 108.5 43.875 L 108.5 44.875 L 108.125 45.625 L 107.125 46.375 L 105.625 47 L 104.625 47.25 L 103.5 47.25 L 103 46.375 L 103 45.5 L 103.5 44.625 L 105.25 43.75 Z M 106.875 43.125 "/>
<path style=" stroke:none;fill-rule:nonzero;fill:rgb(84.313726%,8.627451%,15.294118%);fill-opacity:1;" d="M 99.5 46.125 L 100.625 46.125 L 101.375 46.625 L 101.375 48 L 100.75 48.75 L 97.625 50.125 L 97.125 50.375 L 96.375 50.25 L 95.625 49.125 L 95.625 48.5 L 96.375 47.5 L 98.875 46.375 Z M 99.5 46.125 "/>
<path style=" stroke:none;fill-rule:nonzero;fill:rgb(6.666667%,27.843139%,23.529412%);fill-opacity:1;" d="M 74.75 68.875 L 75.5 68.875 L 76.25 70.875 L 76.375 71 L 76.375 71.625 L 76 71.75 L 76.25 73.125 L 76.25 74.125 L 76.125 74.375 L 75.875 74.375 L 75.625 75 L 75.25 75.375 L 75 73.75 L 74.375 72.5 L 73.875 72.125 L 71.25 71.875 L 71.625 70.75 L 72 70.125 L 74.375 69 Z M 74.75 68.875 "/>
<path style=" stroke:none;fill-rule:nonzero;fill:rgb(6.27451%,27.450982%,23.137255%);fill-opacity:1;" d="M 54.375 90.875 L 56.25 90.875 L 58.25 91.25 L 58.5 91.375 L 58.75 93.125 L 62 93.125 L 62 92.875 L 62.875 92.875 L 62.875 93.125 L 64.25 93 L 64.75 93.25 L 63 93.5 L 58.25 93.5 L 57.75 93.375 L 56.125 93.25 L 55.25 92.875 L 55.25 92.625 L 54.125 92.625 L 52.25 92.25 L 52.25 91.75 L 52.75 91.25 Z M 54.375 90.875 "/>
<path style=" stroke:none;fill-rule:nonzero;fill:rgb(10.196079%,47.843137%,29.803923%);fill-opacity:1;" d="M 98.75 53.125 L 99 53.375 L 99 54.25 L 98.75 55 L 97.75 55.875 L 96.125 57 L 94.875 57.375 L 93.5 58 L 93.25 58 L 92.875 56.625 L 93 56.125 L 96.75 54.25 L 97.5 54.125 L 97.625 53.75 L 98.375 53.375 L 98.75 53.375 Z M 98.75 53.125 "/>
<path style=" stroke:none;fill-rule:nonzero;fill:rgb(3.529412%,11.764706%,14.509805%);fill-opacity:1;" d="M 57 75 L 58.375 75 L 59.125 75.25 L 59.25 76 L 59.125 77.375 L 59.625 77.625 L 51.5 77.625 L 51.5 77.5 L 54.875 77.375 L 54.75 76.75 L 55.5 75.375 Z M 57 75 "/>
<path style=" stroke:none;fill-rule:nonzero;fill:rgb(7.843138%,33.333334%,25.882354%);fill-opacity:1;" d="M 78.875 66.75 L 79.5 66.875 L 80 68 L 81.125 70 L 82.125 70.875 L 82.25 71.625 L 82.625 71.625 L 82.625 71.875 L 81.5 72.25 L 81.125 72.75 L 80.875 73.25 L 79.75 72.5 L 79.125 72 L 78.25 70.875 L 78.75 70.625 L 79 70.75 L 78.625 70.25 L 78.5 69.75 L 78.25 69.625 L 78.25 68.25 L 78.625 68.125 L 78.75 67.875 Z M 79.5 68.25 L 79.625 70 L 79.75 70.125 L 79.875 71 L 80.5 71.375 L 80.875 71.375 L 81 71 L 81.25 70.875 L 81 70.125 L 80.125 68.875 L 79.875 68.25 Z M 79.5 68.25 "/>
<path style=" stroke:none;fill-rule:nonzero;fill:rgb(90.980393%,96.470588%,96.470588%);fill-opacity:1;" d="M 58.75 56.5 L 59.625 56.5 L 60.5 56.875 L 61.125 57.625 L 61.125 59.125 L 60.5 59.875 L 60.125 60 L 58.625 60 L 57.875 59.375 L 57.5 58.75 L 57.5 57.875 L 57.625 57.375 Z M 58.75 56.5 "/>
<path style=" stroke:none;fill-rule:nonzero;fill:rgb(91.37255%,96.470588%,96.470588%);fill-opacity:1;" d="M 53.125 56.5 L 54.25 56.5 L 55.25 57.375 L 55.5 57.875 L 55.5 58.875 L 54.75 59.875 L 54.375 60.125 L 53 60.125 L 52.25 59.5 L 52 59.125 L 51.875 58 L 52.25 57.25 Z M 53.125 56.5 "/>
<path style=" stroke:none;fill-rule:nonzero;fill:rgb(90.980393%,96.470588%,96.470588%);fill-opacity:1;" d="M 64.375 56.5 L 65.625 56.625 L 66.625 57.75 L 66.625 58.875 L 66.125 59.75 L 65.25 60.25 L 64.25 60.125 L 63.5 59.5 L 63.125 58.875 L 63.125 57.875 L 63.875 56.875 Z M 64.375 56.5 "/>
<path style=" stroke:none;fill-rule:nonzero;fill:rgb(83.92157%,8.627451%,15.294118%);fill-opacity:1;" d="M 71.375 33.625 L 71.625 33.75 L 71.5 34.25 L 70.625 35.25 L 70.125 35.5 L 70.25 36.25 L 69.25 37.625 L 68.875 37.75 L 68.625 38.125 L 66.5 37.875 L 65.625 37.75 L 66 37.625 L 65.875 36.625 L 68.125 35.625 L 69.375 34.75 L 70.625 34.25 Z M 71.375 33.625 "/>
<path style=" stroke:none;fill-rule:nonzero;fill:rgb(83.529413%,8.235294%,15.294118%);fill-opacity:1;" d="M 75.875 54.5 L 76.875 54.5 L 76.875 54.875 L 76.5 55.625 L 76.5 57.25 L 76.75 57.625 L 77.25 57.75 L 79.625 57.875 L 79.75 58.125 L 79.75 59.375 L 75.75 59.5 L 75.5 59.125 L 75.5 54.875 L 75.875 54.75 Z M 75.875 54.5 "/>
<path style=" stroke:none;fill-rule:nonzero;fill:rgb(5.490196%,23.529412%,21.568628%);fill-opacity:1;" d="M 83.25 29.875 L 83.375 29.875 L 83.5 31.375 L 84.125 31.625 L 84.25 32 L 83 33.5 L 82.25 34.625 L 81.875 35.25 L 81.5 35.5 L 80.25 34.375 L 80.5 34.25 L 80.625 33 L 81.125 32.5 L 81.375 31.75 L 82.125 30.875 L 83.125 30 Z M 83.25 29.875 "/>
<path style=" stroke:none;fill-rule:nonzero;fill:rgb(8.235294%,47.058824%,28.627452%);fill-opacity:1;" d="M 65.625 48.625 L 65.875 48.625 L 65.875 50.625 L 65.125 51.75 L 65 51.875 L 61.5 51.875 L 61.5 51.625 L 61.75 51.625 L 61.625 50.25 L 63.125 49.625 L 65.375 48.75 Z M 65.625 48.625 "/>
<path style=" stroke:none;fill-rule:nonzero;fill:rgb(92.156863%,9.411765%,16.470589%);fill-opacity:1;" d="M 47.5 74.375 L 55.75 74.375 L 56 74.875 L 55.25 75.125 L 53.875 75.375 L 52.125 75.5 L 46.625 75.5 L 46.5 74.625 Z M 47.5 74.375 "/>
<path style=" stroke:none;fill-rule:nonzero;fill:rgb(93.725491%,9.411765%,16.470589%);fill-opacity:1;" d="M 106.375 48.375 L 107.125 48.375 L 107.5 49 L 107.5 50.375 L 106.875 51.625 L 106.125 51.875 L 106.875 51 L 107.25 50.25 L 107.25 49.375 L 107.125 50.25 L 107 50.375 L 104.125 50.625 L 104 50.875 L 102.875 51.375 L 102.5 51.625 L 101.625 51.625 L 101.125 51.125 L 101.75 50.625 L 103 49.875 L 106 48.5 Z M 106.375 48.375 "/>
<path style=" stroke:none;fill-rule:nonzero;fill:rgb(6.27451%,31.764707%,24.313726%);fill-opacity:1;" d="M 81.625 42.25 L 81.875 42.25 L 81.875 44 L 81.625 44.5 L 81.75 48.625 L 82 48.75 L 82 51 L 81.75 50.875 L 81.75 50.25 L 81.5 50.25 L 81.25 48.875 L 81.25 46.5 L 80.875 46.25 L 80.875 45.875 L 80.5 45.875 L 80.375 46.375 L 80.5 46.5 L 80.375 48.125 L 80.125 48.25 L 80 44.375 L 79.875 43.375 L 78.875 43.375 L 79.375 43.125 L 80.25 42.875 L 80.75 42.625 L 81.5 42.5 Z M 81.625 42.25 "/>
<path style=" stroke:none;fill-rule:nonzero;fill:rgb(8.627451%,47.058824%,29.019609%);fill-opacity:1;" d="M 72.375 61.5 L 72.5 61.5 L 72.625 64.5 L 74 64.375 L 74.625 64.25 L 74.625 63.75 L 74.875 63.75 L 75 64.625 L 75 66.75 L 72.75 67.5 L 72.375 67.5 Z M 72.375 61.5 "/>
<path style=" stroke:none;fill-rule:nonzero;fill:rgb(51.372552%,63.529414%,60.392159%);fill-opacity:1;" d="M 100.625 57.625 L 101 57.625 L 101 57.875 L 100.75 57.875 L 100.625 58.25 L 100.375 58.375 L 100.25 59 L 99.625 59.25 L 99.5 59.625 L 99.5 60.625 L 100 60.875 L 100.375 60.875 L 100.5 60.5 L 102 60.125 L 102.125 60.375 L 98.625 62 L 98.25 62 L 98.5 61.5 L 98 61.5 L 97.875 61.875 L 97.25 61.875 L 97.375 61.625 L 97.625 61.625 L 97.75 61.25 L 98 61.125 L 98 60.5 L 97.75 60.375 L 98 59.875 L 98.5 59.625 L 98.5 59.125 L 97.375 59.25 L 97.875 58.875 Z M 100.625 57.625 "/>
<path style=" stroke:none;fill-rule:nonzero;fill:rgb(93.725491%,9.411765%,16.470589%);fill-opacity:1;" d="M 99.5 46.125 L 100.625 46.125 L 101.25 46.625 L 101.125 47.75 L 99.25 48 L 99.125 48.25 L 97.875 48.625 L 97.375 48.75 L 96.25 48.625 L 96.5 47.875 L 98.125 47.125 L 98.25 46.875 L 98 46.75 Z M 99.5 46.125 "/>
<path style=" stroke:none;fill-rule:nonzero;fill:rgb(90.980393%,96.470588%,96.470588%);fill-opacity:1;" d="M 50.625 38.125 L 52.125 38.125 L 52.25 38.375 L 52.25 39.375 L 52.125 39.625 L 50.25 40.125 L 49.5 40.375 L 48.625 41.25 L 48.5 41.5 L 48.125 41.5 L 47.875 41 L 48.125 40.625 L 48.625 40.625 L 48.625 39.625 L 49 38.875 L 50.25 38.25 Z M 50.625 38.125 "/>
<path style=" stroke:none;fill-rule:nonzero;fill:rgb(98.823529%,98.823529%,98.823529%);fill-opacity:1;" d="M 39.25 39.25 L 39.75 39.5 L 39.875 40.25 L 38.875 41.5 L 37.5 43 L 36.75 43.125 L 36.625 42.625 L 36.875 41.5 L 37.375 40.875 L 37.625 40.75 L 37.75 40.375 Z M 39.25 39.25 "/>
<path style=" stroke:none;fill-rule:nonzero;fill:rgb(84.313726%,8.627451%,15.294118%);fill-opacity:1;" d="M 75.125 37.5 L 75.5 37.625 L 75.125 38.375 L 76.125 38 L 76.625 38 L 76.125 38.625 L 75.25 39.25 L 74.75 40.375 L 74.625 41.375 L 74.875 42 L 74.375 42 L 74.375 41.75 L 74.125 41.75 L 73.875 40.5 L 73.625 40.5 L 73.375 42.25 L 73.25 42.25 L 73.25 40.25 L 73.75 39 Z M 75.125 37.5 "/>
<path style=" stroke:none;fill-rule:nonzero;fill:rgb(7.058824%,79.215688%,34.117648%);fill-opacity:1;" d="M 72.25 45.375 L 72.75 45.5 L 72.875 45.75 L 72.875 53.625 L 72.25 53.875 Z M 72.25 45.375 "/>
<path style=" stroke:none;fill-rule:nonzero;fill:rgb(72.549021%,8.235294%,15.294118%);fill-opacity:1;" d="M 51.75 37.625 L 64.75 37.625 L 67.375 37.875 L 67.375 38 L 54.25 38 L 51.5 37.875 Z M 51.75 37.625 "/>
<path style=" stroke:none;fill-rule:nonzero;fill:rgb(5.098039%,22.745098%,21.176471%);fill-opacity:1;" d="M 90 69.5 L 90.625 69.625 L 90.75 69.75 L 90.625 70.875 L 91.125 71.125 L 91.25 71.875 L 90.5 72.75 L 89.5 72.625 L 88.5 72 L 88.875 71.625 L 89.25 71.625 L 89.125 70.875 L 89.375 70.25 Z M 90 69.5 "/>
<path style=" stroke:none;fill-rule:nonzero;fill:rgb(98.823529%,98.823529%,98.823529%);fill-opacity:1;" d="M 51.75 40.625 L 53.875 40.625 L 53.875 40.875 L 52.625 41.625 L 51 42.125 L 50.125 42.75 L 49.5 43.75 L 49 43.875 L 49 43 L 49.625 41.875 L 50.625 41 Z M 51.75 40.625 "/>
<path style=" stroke:none;fill-rule:nonzero;fill:rgb(98.823529%,98.823529%,98.823529%);fill-opacity:1;" d="M 48.25 33.125 L 49.125 33.375 L 49.375 33.625 L 49.375 34.125 L 46.5 35.5 L 45.875 35.625 L 45.5 35 L 45.75 34.375 L 47 33.625 Z M 48.25 33.125 "/>
<path style=" stroke:none;fill-rule:nonzero;fill:rgb(6.666667%,35.294119%,25.490198%);fill-opacity:1;" d="M 106.875 55.5 L 107.875 56 L 108.125 56.5 L 108 57.25 L 107.5 57.875 L 105.875 58 L 105.625 57.75 L 105.625 56.25 L 106.25 55.625 Z M 106.875 55.5 "/>
<path style=" stroke:none;fill-rule:nonzero;fill:rgb(3.529412%,11.764706%,14.509805%);fill-opacity:1;" d="M 89.375 57.25 L 89.875 57.5 L 90 57.875 L 90 58.75 L 90.5 58.875 L 91.25 61 L 91.25 62.375 L 91 62.875 L 91 63.75 L 90.75 63.75 L 90.75 64.5 L 90.625 64.5 L 90 60.625 L 89.5 58.5 L 89.375 58.125 Z M 89.375 57.25 "/>
<path style=" stroke:none;fill-rule:nonzero;fill:rgb(13.725491%,38.82353%,30.588236%);fill-opacity:1;" d="M 87.625 76.5 L 88.625 76.5 L 88.375 77.125 L 88.125 77.125 L 88 78.125 L 87.25 79.125 L 85.875 80.625 L 85.5 81 L 85.5 80.375 L 86.75 79 L 86.375 78 L 86.5 76.875 Z M 87.625 76.5 "/>
<path style=" stroke:none;fill-rule:nonzero;fill:rgb(98.823529%,98.823529%,98.823529%);fill-opacity:1;" d="M 76.5 38.125 L 77 38.25 L 77 39.125 L 76.75 39.125 L 76.625 39.625 L 76.25 40 L 75.625 41.25 L 75.375 41.875 L 74.75 41.875 L 74.5 41.25 L 74.75 40.125 L 75.25 39.125 Z M 76.5 38.125 "/>
<path style=" stroke:none;fill-rule:nonzero;fill:rgb(6.27451%,27.450982%,23.137255%);fill-opacity:1;" d="M 66.875 90.25 L 67.125 90.375 L 66.75 90.75 L 66.375 91.375 L 64.125 92.625 L 63.75 92.75 L 63.75 92.25 L 64 92.25 L 63.875 92 L 63.25 91.75 L 63.125 91.5 L 62.5 91.375 L 62.5 91.25 L 66.375 90.375 Z M 66.875 90.25 "/>
<path style=" stroke:none;fill-rule:nonzero;fill:rgb(65.882355%,8.235294%,15.294118%);fill-opacity:1;" d="M 46.5 74 L 50.625 74 L 56 74.125 L 56.375 74.375 L 56 74.375 L 55.875 74.625 L 55.75 74.5 L 47.5 74.5 L 46.5 74.625 L 46.625 75.25 L 45.75 75.375 L 45.75 74.125 Z M 46.5 74 "/>
<path style=" stroke:none;fill-rule:nonzero;fill:rgb(6.666667%,32.941177%,25.098041%);fill-opacity:1;" d="M 43.5 72.625 L 43.75 73.125 L 43.625 75.25 L 43 75.5 L 42.125 75.5 L 41.75 74.375 L 41.625 73.875 L 41.75 73.5 Z M 43.5 72.625 "/>
<path style=" stroke:none;fill-rule:nonzero;fill:rgb(98.823529%,98.823529%,98.823529%);fill-opacity:1;" d="M 42.125 36.625 L 42.875 36.875 L 43 37.25 L 42.75 38 L 41.75 38.875 L 41 39.25 L 40.625 39.25 L 40.5 38 L 41.25 37.125 Z M 42.125 36.625 "/>
<path style=" stroke:none;fill-rule:nonzero;fill:rgb(98.823529%,98.823529%,98.823529%);fill-opacity:1;" d="M 46.875 74.5 L 53.625 74.5 L 53.625 74.625 L 50 75 L 47.25 75.5 L 46.625 75.5 L 46.5 74.625 Z M 46.875 74.5 "/>
<path style=" stroke:none;fill-rule:nonzero;fill:rgb(18.82353%,43.529412%,34.901962%);fill-opacity:1;" d="M 85 81.125 L 85.25 81.25 L 85 81.75 L 84.125 82.75 L 82 84.875 L 80.5 86.25 L 79.875 86.875 L 79 87.625 L 78.625 87.75 L 78.75 87.25 L 80.25 85.875 L 82.375 83.875 L 84.375 81.875 L 84.625 81.875 L 84.875 81.25 Z M 85 81.125 "/>
<path style=" stroke:none;fill-rule:nonzero;fill:rgb(52.156866%,63.921571%,60.784316%);fill-opacity:1;" d="M 79.25 67.5 L 79.625 67.625 L 80.125 68.25 L 81.125 70 L 81 70.375 L 79.875 68.625 L 79.875 68.25 L 79.5 68.25 L 79.75 70 L 79.875 70.125 L 79.875 71 L 80.375 71.125 L 80.875 71.375 L 81 70.875 L 81.25 70.875 L 81.375 70.625 L 81.625 71.375 L 80.875 71.875 L 80.375 71.625 L 79.625 71.375 L 79.375 70.75 L 79.375 69.25 L 79 69.25 L 79 68.125 Z M 79.25 67.5 "/>
<path style=" stroke:none;fill-rule:nonzero;fill:rgb(52.941179%,64.313728%,61.56863%);fill-opacity:1;" d="M 95 60.25 L 95.25 60.25 L 95.25 60.75 L 95.625 60.875 L 95.5 62 L 95.875 62.125 L 95.875 63 L 96.125 63.125 L 95 63.5 L 94.625 62.125 L 94.25 61.125 L 94.375 60.625 Z M 95 60.25 "/>
<path style=" stroke:none;fill-rule:nonzero;fill:rgb(85.09804%,8.627451%,15.294118%);fill-opacity:1;" d="M 50.125 40.375 L 50.625 40.5 L 50.375 40.5 L 50.375 41.375 L 49.625 42 L 49 43.125 L 48.75 43.625 L 48.25 43.375 L 48.25 42.5 L 48.625 41.625 L 49.125 41 Z M 50.125 40.375 "/>
<path style=" stroke:none;fill-rule:nonzero;fill:rgb(81.176472%,8.235294%,15.294118%);fill-opacity:1;" d="M 75.5 42.125 L 75.75 42.5 L 75.25 43.375 L 76 43.375 L 76.375 43.625 L 76.375 44 L 75.75 44.375 L 74.625 44.375 L 74.375 44.25 L 74.375 46.375 L 74.25 46.375 L 74.125 44.25 L 74.125 43.75 L 75.25 42.5 Z M 75.5 42.125 "/>
<path style=" stroke:none;fill-rule:nonzero;fill:rgb(17.254902%,51.372552%,35.294119%);fill-opacity:1;" d="M 98.875 36.5 L 99.375 36.75 L 99.5 36.875 L 100.125 36.75 L 99.625 37.25 L 97.375 38.25 L 96.125 38.75 L 95.25 38.75 L 95.75 38.375 L 97.125 37.625 L 98.125 37.125 L 98.375 36.625 Z M 98.875 36.5 "/>
<path style=" stroke:none;fill-rule:nonzero;fill:rgb(9.019608%,21.960784%,22.352941%);fill-opacity:1;" d="M 47.75 83.625 L 48.875 83.75 L 49 84.625 L 47.875 85.125 L 46.75 85.125 L 46.5 84.875 L 46.625 84.375 Z M 47.75 83.625 "/>
<path style=" stroke:none;fill-rule:nonzero;fill:rgb(25.098041%,44.705883%,39.607844%);fill-opacity:1;" d="M 56.125 92.875 L 58 93 L 58.625 93.125 L 62 93.125 L 62 92.875 L 62.875 92.875 L 62.875 93.125 L 64.25 93 L 64.75 93.25 L 63 93.5 L 58.25 93.5 L 57.75 93.375 L 56.125 93.25 Z M 56.125 92.875 "/>
<path style=" stroke:none;fill-rule:nonzero;fill:rgb(89.019608%,9.019608%,16.078432%);fill-opacity:1;" d="M 81.5 35.75 L 81.875 35.875 L 81.875 36.75 L 81.25 38.125 L 81 39.375 L 81.875 40.875 L 81.875 42.25 L 81.625 42.25 L 81.625 42.5 L 81.125 42.375 L 81 41.875 L 81.25 41.375 L 81 40.125 L 80.75 39.5 L 80.875 38 L 81.375 37 Z M 81.5 35.75 "/>
<path style=" stroke:none;fill-rule:nonzero;fill:rgb(98.823529%,98.823529%,98.823529%);fill-opacity:1;" d="M 64.375 56.5 L 65.625 56.625 L 65.75 56.875 L 64.25 57 L 63.75 57.5 L 63.5 58.25 L 63.5 59 L 64 59.5 L 64.375 59.625 L 64.375 59.875 L 65.625 59.875 L 65.875 59.375 L 66.25 58.75 L 66.375 57.625 L 66.625 57.75 L 66.625 58.875 L 66.125 59.75 L 65.25 60.25 L 64.25 60.125 L 63.5 59.5 L 63.125 58.875 L 63.125 57.875 L 63.875 56.875 Z M 64.375 56.5 "/>
<path style=" stroke:none;fill-rule:nonzero;fill:rgb(98.823529%,98.823529%,98.823529%);fill-opacity:1;" d="M 58.75 56.5 L 59.625 56.5 L 60.5 56.875 L 61.125 57.625 L 61.125 59.125 L 60.5 59.875 L 60.125 60 L 58.625 60 L 58.5 59.75 L 60 59.75 L 60.625 59.125 L 60.875 58.625 L 60.625 57.375 L 60.25 57 L 58.875 57 L 58 57.75 L 57.875 59.125 L 57.5 58.75 L 57.5 57.875 L 57.625 57.375 Z M 58.75 56.5 "/>
<path style=" stroke:none;fill-rule:nonzero;fill:rgb(7.450981%,29.019609%,24.313726%);fill-opacity:1;" d="M 62.625 81.125 L 63.125 81.125 L 63 81.75 L 62.125 82.75 L 61.125 82.75 L 60.5 82.375 L 60.625 81.875 Z M 62.625 81.125 "/>
<path style=" stroke:none;fill-rule:nonzero;fill:rgb(98.823529%,98.823529%,98.823529%);fill-opacity:1;" d="M 30.75 50.25 L 31.5 50.25 L 31.875 50.625 L 31.5 51.875 L 31 52.625 L 30.5 52.5 L 30.25 51.5 Z M 30.75 50.25 "/>
<path style=" stroke:none;fill-rule:nonzero;fill:rgb(9.411765%,21.960784%,22.352941%);fill-opacity:1;" d="M 80.375 45.5 L 81.125 45.5 L 81.375 45.75 L 81.5 46.375 L 81.625 49.75 L 82 49.875 L 82 51 L 81.75 50.875 L 81.75 50.25 L 81.5 50.25 L 81.25 48.875 L 81.25 46.5 L 80.875 46.25 L 80.875 45.875 L 80.5 45.875 L 80.375 46.375 L 80.5 46.5 L 80.375 48.125 L 80.125 48.25 L 80.125 45.75 Z M 80.375 45.5 "/>
<path style=" stroke:none;fill-rule:nonzero;fill:rgb(8.627451%,47.058824%,29.019609%);fill-opacity:1;" d="M 72.25 45.375 L 72.75 45.5 L 72.75 47 L 72.625 47.5 L 72.5 53.5 L 72.375 53.5 L 72.25 52.625 Z M 72.25 45.375 "/>
<path style=" stroke:none;fill-rule:nonzero;fill:rgb(90.980393%,96.470588%,96.470588%);fill-opacity:1;" d="M 52.625 48.125 L 53 48.25 L 52.625 48.5 L 52.625 49.75 L 52.875 51 L 52.5 51.125 L 51.75 51 L 51.75 51.25 L 51.375 51.25 L 51.375 50.625 L 51.5 50 L 51.625 49.5 L 52.125 49.375 L 52.125 48.625 Z M 52.625 48.125 "/>
<path style=" stroke:none;fill-rule:nonzero;fill:rgb(5.098039%,22.745098%,21.176471%);fill-opacity:1;" d="M 74.375 88 L 74.875 88.25 L 74.375 89.25 L 75 89.125 L 75.375 89.375 L 75.125 89.875 L 74.125 90 L 74 89.75 L 73.25 89.875 L 73.125 89.75 L 73.125 88.875 L 74.25 88.5 Z M 74.375 88 "/>
<path style=" stroke:none;fill-rule:nonzero;fill:rgb(83.92157%,8.627451%,15.294118%);fill-opacity:1;" d="M 72.75 32 L 73.625 32 L 75.75 33.25 L 76.25 33.75 L 76.125 34.25 L 75.625 33.625 L 74 32.625 L 74 32.875 L 73 32.875 L 72.25 32.75 Z M 72.75 32 "/>
<path style=" stroke:none;fill-rule:nonzero;fill:rgb(52.941179%,64.313728%,61.56863%);fill-opacity:1;" d="M 22 73.25 L 22.125 73.25 L 22.25 75.625 L 22.5 75.625 L 22.75 77.625 L 23.125 78 L 23.25 77.5 L 23.625 76.875 L 23.875 76.875 L 23.625 77.625 L 23.125 78.5 L 22.5 78.25 L 22.125 77.125 L 22 75.125 Z M 22 73.25 "/>
<path style=" stroke:none;fill-rule:nonzero;fill:rgb(52.941179%,64.313728%,61.56863%);fill-opacity:1;" d="M 81.75 44 L 82 44.375 L 82 48.75 L 81.625 48.625 L 81.5 44.5 Z M 81.75 44 "/>
<path style=" stroke:none;fill-rule:nonzero;fill:rgb(83.92157%,8.627451%,15.294118%);fill-opacity:1;" d="M 67.75 40.375 L 68.5 40.5 L 69.125 41 L 69.5 41.75 L 69.125 42 L 68.125 42.125 L 67.75 41.375 L 68.125 40.625 L 67.75 40.5 Z M 67.75 40.375 "/>
<path style=" stroke:none;fill-rule:nonzero;fill:rgb(9.019608%,21.960784%,22.352941%);fill-opacity:1;" d="M 80.75 42.625 L 81.375 42.625 L 81.375 44.125 L 80.625 44.125 L 80.125 43.625 L 79.875 43.625 L 79.875 43.375 L 78.875 43.375 L 79.375 43.125 L 80.25 42.875 Z M 80.75 42.625 "/>
<path style=" stroke:none;fill-rule:nonzero;fill:rgb(12.54902%,49.411765%,32.156864%);fill-opacity:1;" d="M 99.625 41.375 L 99.875 41.375 L 100.125 41.75 L 100.75 41.875 L 101.625 41.875 L 102.5 41.5 L 103.5 41.375 L 103.25 41.875 L 101.625 42.375 L 100.25 42.5 L 99.75 42.125 Z M 99.625 41.375 "/>
<path style=" stroke:none;fill-rule:nonzero;fill:rgb(8.235294%,47.058824%,28.627452%);fill-opacity:1;" d="M 69.75 89 L 70.25 89.125 L 69.625 89.75 L 67.875 90.25 L 66.75 90.25 L 67.25 89.875 L 68.75 89.25 Z M 69.75 89 "/>
<path style=" stroke:none;fill-rule:nonzero;fill:rgb(98.823529%,98.823529%,98.823529%);fill-opacity:1;" d="M 53.75 53.375 L 55 53.375 L 55.25 53.5 L 64.625 53.5 L 64.375 53.75 L 54.125 53.75 L 53.75 53.625 Z M 53.75 53.375 "/>
<path style=" stroke:none;fill-rule:nonzero;fill:rgb(68.235296%,8.235294%,15.294118%);fill-opacity:1;" d="M 75.25 38.625 L 75.625 38.625 L 75.625 39 L 75.125 39.5 L 74.75 40.375 L 74.625 41.375 L 74.875 42 L 74.375 42 L 74.375 41.75 L 74.125 41.75 L 74.125 40.375 L 74.75 39.125 Z M 75.25 38.625 "/>
<path style=" stroke:none;fill-rule:nonzero;fill:rgb(9.019608%,22.352941%,22.352941%);fill-opacity:1;" d="M 43.5 85.875 L 44.25 85.875 L 44.625 86.25 L 44.625 86.5 L 44 87 L 43.25 87.125 L 42.75 86.75 L 42.875 86.125 Z M 43.5 85.875 "/>
<path style=" stroke:none;fill-rule:nonzero;fill:rgb(52.941179%,64.313728%,61.56863%);fill-opacity:1;" d="M 87.75 62.875 L 88.75 62.875 L 89 64 L 89 67.125 L 88.75 68.125 L 88.625 68.125 L 88.625 63.625 L 88.25 63.25 L 87.5 63.125 Z M 87.75 62.875 "/>
<path style=" stroke:none;fill-rule:nonzero;fill:rgb(52.941179%,64.313728%,61.56863%);fill-opacity:1;" d="M 101.625 57.25 L 102.75 57.375 L 103.25 57.75 L 103.375 58.25 L 103.125 58.25 L 103.125 59 L 102.5 60.125 L 102.25 60 L 102.625 59.25 L 102.75 57.875 L 101.75 57.875 L 101.625 57.625 L 101.25 57.375 Z M 101.625 57.25 "/>
<path style=" stroke:none;fill-rule:nonzero;fill:rgb(25.882354%,41.176471%,38.431373%);fill-opacity:1;" d="M 83.5 29.5 L 83.75 29.5 L 83.75 29.75 L 83 30.25 L 82.375 30.875 L 82.125 30.875 L 81.875 31.375 L 81.375 31.875 L 81.125 32.75 L 80.625 33 L 80.75 33.625 L 80.625 34.375 L 80.125 34.125 L 80.25 33.25 L 81 32 L 82 30.75 L 83 29.875 Z M 83.5 29.5 "/>
<path style=" stroke:none;fill-rule:nonzero;fill:rgb(59.607846%,69.803923%,67.450982%);fill-opacity:1;" d="M 26.25 87.75 L 26.5 87.75 L 25.375 90 L 25 90.5 L 24.75 91.625 L 24.125 91.5 L 23.75 90.5 L 23.5 90 L 23.625 89.625 L 23.625 89.875 L 23.875 89.875 L 24.625 91.375 L 24.75 90.25 L 25.125 89.875 L 25.625 88.75 Z M 26.25 87.75 "/>
<path style=" stroke:none;fill-rule:nonzero;fill:rgb(6.27451%,32.156864%,24.705882%);fill-opacity:1;" d="M 77.25 60.375 L 77.625 60.375 L 77.75 60.625 L 77.75 61.75 L 77.5 62.5 L 77.125 62.125 L 76.75 61.5 L 76.625 61.125 L 76.75 60.75 Z M 77.25 60.375 "/>
<path style=" stroke:none;fill-rule:nonzero;fill:rgb(68.627453%,9.019608%,16.078432%);fill-opacity:1;" d="M 47.875 32.875 L 49 32.875 L 49.625 33.25 L 49.5 33.75 L 49 33.375 L 48.25 33.25 L 46.5 34 L 46.125 34.25 L 45.75 34.25 L 45.75 34 L 47 33.375 L 47.125 33.125 Z M 47.875 32.875 "/>
<path style=" stroke:none;fill-rule:nonzero;fill:rgb(36.862746%,53.333336%,49.019608%);fill-opacity:1;" d="M 89.625 25.75 L 90.375 25.75 L 90.875 26 L 91.125 26.5 L 91 27.375 L 90.75 27.125 L 90.625 26.125 L 89.625 26.125 L 88.5 26.5 L 88.25 27.125 L 87.875 27.375 L 86.75 27.625 L 87.25 27.125 L 88.625 26.25 Z M 89.625 25.75 "/>
<path style=" stroke:none;fill-rule:nonzero;fill:rgb(54.11765%,65.098041%,62.352943%);fill-opacity:1;" d="M 106.875 55.5 L 107.875 56 L 108.125 56.5 L 108 57.25 L 107.5 57.875 L 105.875 58 L 105.625 57.75 L 105.625 56.25 L 106.25 55.625 Z M 106.5 55.75 L 105.75 56.5 L 105.75 57.5 L 106.25 57.875 L 107.5 57.625 L 107.875 57 L 107.875 56.25 L 107.125 55.75 Z M 106.5 55.75 "/>
<path style=" stroke:none;fill-rule:nonzero;fill:rgb(92.156863%,94.117647%,93.725491%);fill-opacity:1;" d="M 84.625 31.625 L 84.875 31.75 L 84.125 32.375 L 83.625 33.125 L 82.875 34.125 L 82.25 35.25 L 81.75 35.875 L 80.875 35.125 L 81.25 35.125 L 81.625 35.375 L 82 35 L 82.625 33.875 L 83.5 32.75 L 84.25 31.875 Z M 84.625 31.625 "/>
<path style=" stroke:none;fill-rule:nonzero;fill:rgb(85.09804%,32.549021%,36.862746%);fill-opacity:1;" d="M 38.75 36.75 L 39 36.875 L 38.375 37.5 L 38.125 37.375 Z M 37.875 37.5 L 38.125 37.625 L 37.5 38.375 L 36.75 39.25 L 35.375 40.5 L 35.125 40.375 L 36.75 38.625 Z M 37.875 37.5 "/>
<path style=" stroke:none;fill-rule:nonzero;fill:rgb(8.235294%,47.058824%,28.627452%);fill-opacity:1;" d="M 74.5 87 L 75.25 87 L 74.625 87.625 L 73 88.25 L 72.875 88.375 L 72 88.375 L 72.625 87.875 L 73.875 87.25 L 74.5 87.25 Z M 74.5 87 "/>
<path style=" stroke:none;fill-rule:nonzero;fill:rgb(96.862745%,97.254902%,97.254902%);fill-opacity:1;" d="M 80.625 32.5 L 80.625 32.875 L 80.25 33.625 L 80.375 34.375 L 80.625 34.75 L 80.125 34.5 L 79.375 33.875 L 79 33.75 L 79 33.5 L 79.625 33 L 80.375 32.75 Z M 80.625 32.5 "/>
<path style=" stroke:none;fill-rule:nonzero;fill:rgb(38.82353%,55.686277%,50.980395%);fill-opacity:1;" d="M 32.375 93.875 L 32.625 94 L 30.875 95.75 L 29.875 97.125 L 29.625 97.5 L 29.5 96.875 L 30.625 95.5 L 32.125 94 Z M 32.375 93.875 "/>
<path style=" stroke:none;fill-rule:nonzero;fill:rgb(7.450981%,33.333334%,25.490198%);fill-opacity:1;" d="M 74.75 68.875 L 75.5 68.875 L 75.75 69.5 L 75.625 70 L 75 70.125 L 74.5 69.625 L 74.375 69 Z M 74.75 68.875 "/>
<path style=" stroke:none;fill-rule:nonzero;fill:rgb(65.882355%,75.294119%,72.941178%);fill-opacity:1;" d="M 30.625 82.5 L 30.875 82.625 L 29.875 83.5 L 29.625 84 L 29 84.5 L 28.375 85.25 L 28.125 85.25 L 27.875 85.75 L 27.25 86.75 L 27.125 86.5 L 27.625 85.5 L 28.625 84.5 L 29.5 83.5 Z M 30.625 82.5 "/>
<path style=" stroke:none;fill-rule:nonzero;fill:rgb(40.392157%,58.039218%,52.156866%);fill-opacity:1;" d="M 85.75 69.75 L 86.125 69.875 L 87.375 69.875 L 87.25 70.125 L 86.375 70.5 L 84.75 70.5 L 84 70.125 L 84.5 70 L 85.5 69.875 Z M 85.75 69.75 "/>
<path style=" stroke:none;fill-rule:nonzero;fill:rgb(72.156864%,9.803922%,16.470589%);fill-opacity:1;" d="M 37.625 40.125 L 37.875 40.125 L 37.625 40.875 L 37 41.5 L 36.75 42.625 L 36.75 43 L 37.125 43.375 L 36.5 43.375 L 36.375 43.25 L 36.375 41.75 L 37.5 40.25 Z M 37.625 40.125 "/>
<path style=" stroke:none;fill-rule:nonzero;fill:rgb(8.235294%,47.058824%,28.627452%);fill-opacity:1;" d="M 60.75 90.875 L 63.25 90.875 L 63.25 91.25 L 62.5 91.375 L 60.375 91.375 Z M 60.75 90.875 "/>
<path style=" stroke:none;fill-rule:nonzero;fill:rgb(31.764707%,49.803922%,44.705883%);fill-opacity:1;" d="M 28.375 99.75 L 28.625 99.75 L 28.625 100.375 L 28.25 100.75 L 28 101.5 L 27.5 101.25 L 27.125 100.625 L 26.875 100 L 27.125 100 L 27.75 100.625 L 28 100 Z M 28.375 99.75 "/>
<path style=" stroke:none;fill-rule:nonzero;fill:rgb(28.627452%,50.196081%,43.137255%);fill-opacity:1;" d="M 80.75 85.375 L 80.875 85.875 L 80.125 86.75 L 79 87.625 L 78.625 87.75 L 78.75 87.25 L 80.25 85.875 Z M 80.75 85.375 "/>
<path style=" stroke:none;fill-rule:nonzero;fill:rgb(83.92157%,8.627451%,15.294118%);fill-opacity:1;" d="M 51.75 68.5 L 52.375 68.5 L 52 68.875 L 51 69.375 L 50.875 69.5 L 49.25 69.5 L 49.375 69.25 L 51.125 68.75 Z M 51.75 68.5 "/>
<path style=" stroke:none;fill-rule:nonzero;fill:rgb(98.823529%,98.823529%,98.823529%);fill-opacity:1;" d="M 52 57.75 L 52.125 57.75 L 52.125 59 L 52.625 59.25 L 53.125 59.75 L 54.25 59.75 L 54.875 59.625 L 54.375 60.125 L 53 60.125 L 52.25 59.5 L 52 59.125 L 51.875 58 Z M 52 57.75 "/>
<path style=" stroke:none;fill-rule:nonzero;fill:rgb(96.862745%,98.039216%,98.039216%);fill-opacity:1;" d="M 87.375 38.25 L 87.75 38.375 L 84.5 39.625 L 83.5 40 L 83.75 39.5 L 85.75 38.75 L 86.875 38.375 Z M 87.375 38.25 "/>
<path style=" stroke:none;fill-rule:nonzero;fill:rgb(13.333334%,48.627451%,32.156864%);fill-opacity:1;" d="M 94.75 60.375 L 95 60.375 L 95.375 61 L 95.25 61.625 L 94.75 61.75 L 94.375 61.375 L 94.25 60.75 Z M 94.75 60.375 "/>
<path style=" stroke:none;fill-rule:nonzero;fill:rgb(9.411765%,21.960784%,22.352941%);fill-opacity:1;" d="M 81.375 46.875 L 81.5 46.875 L 81.625 49.75 L 82 49.875 L 82 51 L 81.75 50.875 L 81.75 50.25 L 81.5 50.25 L 81.25 48.875 L 81.25 47 Z M 81.375 46.875 "/>
<path style=" stroke:none;fill-rule:nonzero;fill:rgb(94.117647%,9.803922%,16.862746%);fill-opacity:1;" d="M 75.875 58 L 76.625 58.125 L 76.625 59.375 L 75.75 59.125 L 75.75 58.125 Z M 75.875 58 "/>
<path style=" stroke:none;fill-rule:nonzero;fill:rgb(69.803923%,8.235294%,15.294118%);fill-opacity:1;" d="M 50.125 40.375 L 50.625 40.5 L 50.375 40.5 L 50.375 41.375 L 49.375 42.125 L 49.25 41.75 L 49.5 41.75 L 49.5 41 Z M 50.125 40.375 "/>
<path style=" stroke:none;fill-rule:nonzero;fill:rgb(71.372551%,8.235294%,15.294118%);fill-opacity:1;" d="M 97.75 46.875 L 98.25 46.875 L 98.125 47.25 L 96.375 48.125 L 96 48.375 L 96.125 47.75 L 97.125 47.125 Z M 97.75 46.875 "/>
<path style=" stroke:none;fill-rule:nonzero;fill:rgb(8.627451%,34.509805%,26.666668%);fill-opacity:1;" d="M 43.375 61.625 L 43.625 61.75 L 43.625 62 L 44.125 62.125 L 44.125 62.5 L 43.25 62.875 L 42.75 62.75 L 43 61.875 Z M 43.375 61.625 "/>
<path style=" stroke:none;fill-rule:nonzero;fill:rgb(23.921569%,43.921569%,38.431373%);fill-opacity:1;" d="M 67.125 92.25 L 68.5 92.25 L 68 92.5 L 67.25 92.75 L 65.375 93.125 L 64.875 93 L 65.25 93 L 65.25 92.75 L 66.5 92.5 Z M 67.125 92.25 "/>
<path style=" stroke:none;fill-rule:nonzero;fill:rgb(9.019608%,21.960784%,22.352941%);fill-opacity:1;" d="M 81.75 70.75 L 82.125 70.875 L 82.25 71.625 L 82.625 71.625 L 82.625 71.875 L 81.5 72.25 L 81.125 72.75 L 80.875 73.25 L 80.625 73 L 80.875 72.25 L 81.25 71.875 L 82 71.625 Z M 81.75 70.75 "/>
<path style=" stroke:none;fill-rule:nonzero;fill:rgb(83.92157%,8.627451%,15.294118%);fill-opacity:1;" d="M 77.125 40.375 L 78 40.375 L 77.625 41 L 76.625 41.75 L 76.25 41.625 L 77 40.5 Z M 77.125 40.375 "/>
<path style=" stroke:none;fill-rule:nonzero;fill:rgb(90.980393%,9.411765%,16.078432%);fill-opacity:1;" d="M 73.125 32 L 73.875 32.125 L 75.75 33.25 L 76.25 33.75 L 76.125 34.25 L 75.625 33.625 L 73.5 32.25 Z M 73.125 32 "/>
<path style=" stroke:none;fill-rule:nonzero;fill:rgb(72.156864%,8.235294%,15.294118%);fill-opacity:1;" d="M 106.5 51.25 L 106.75 51.375 L 106.125 52 L 105 52.375 L 104 52.875 L 103.5 52.75 L 105.375 51.75 Z M 106.5 51.25 "/>
<path style=" stroke:none;fill-rule:nonzero;fill:rgb(73.333335%,8.235294%,15.294118%);fill-opacity:1;" d="M 105.125 48.875 L 105.625 48.875 L 105.625 49.125 L 103.875 50 L 103.25 50.125 L 103.25 49.75 Z M 105.125 48.875 "/>
<path style=" stroke:none;fill-rule:nonzero;fill:rgb(8.235294%,37.64706%,27.058825%);fill-opacity:1;" d="M 94.75 61.875 L 95 62 L 95 62.25 L 95.625 62.375 L 95.625 63.25 L 95 63.5 L 94.75 62.375 Z M 94.75 61.875 "/>
<path style=" stroke:none;fill-rule:nonzero;fill:rgb(65.490198%,8.235294%,15.294118%);fill-opacity:1;" d="M 76.75 59.375 L 79.5 59.375 L 79 59.5 L 79 59.75 L 77.375 59.75 L 76.625 59.625 L 76.5 59.875 L 76.5 59.5 Z M 76.75 59.375 "/>
<path style=" stroke:none;fill-rule:nonzero;fill:rgb(83.92157%,8.627451%,15.294118%);fill-opacity:1;" d="M 81.25 40.75 L 81.625 41 L 81.875 41.625 L 81.875 42.25 L 81.625 42.25 L 81.625 42.5 L 81.125 42.375 L 81 41.875 L 81.25 41.375 Z M 81.25 40.75 "/>
<path style=" stroke:none;fill-rule:nonzero;fill:rgb(64.705884%,65.490198%,63.921571%);fill-opacity:1;" d="M 26.875 56.25 L 27 56.25 L 26.875 57.875 L 26.875 59.875 L 26.5 59.875 L 26.375 58.875 L 26.75 56.875 Z M 26.875 56.25 "/>
<path style=" stroke:none;fill-rule:nonzero;fill:rgb(8.627451%,34.509805%,26.666668%);fill-opacity:1;" d="M 83.75 48 L 83.875 48 L 84 49 L 85 49.125 L 85 49.5 L 84.375 49.75 L 83.75 49.625 Z M 83.75 48 "/>
<path style=" stroke:none;fill-rule:nonzero;fill:rgb(41.960785%,58.039218%,53.333336%);fill-opacity:1;" d="M 74.5 89.875 L 75.25 89.875 L 74.875 90.125 L 73.75 90.625 L 72.5 91.125 L 72.125 91 L 72.625 90.875 L 72.75 90.5 L 73.375 90.625 L 73.5 90.25 L 74.125 90.125 L 74.375 90.25 Z M 74.5 89.875 "/>
<path style=" stroke:none;fill-rule:nonzero;fill:rgb(98.039216%,98.431373%,98.431373%);fill-opacity:1;" d="M 22 73.25 L 22.125 73.25 L 22.25 75 L 22.5 77 L 22.5 77.875 L 22.125 77.125 L 22 75.125 Z M 22 73.25 "/>
<path style=" stroke:none;fill-rule:nonzero;fill:rgb(93.725491%,9.411765%,16.470589%);fill-opacity:1;" d="M 96.625 49.5 L 98.125 49.5 L 97.625 50.125 L 97.125 50.375 L 96.625 50.25 L 96.5 49.625 Z M 96.625 49.5 "/>
<path style=" stroke:none;fill-rule:nonzero;fill:rgb(7.450981%,21.960784%,21.568628%);fill-opacity:1;" d="M 76.625 59.625 L 77.125 59.625 L 77.25 60.5 L 76.75 60.75 L 76.625 61.375 L 76.5 61.375 L 76.5 59.875 Z M 76.625 59.625 "/>
<path style=" stroke:none;fill-rule:nonzero;fill:rgb(92.54902%,14.117648%,20.784314%);fill-opacity:1;" d="M 106.75 48.375 L 107.125 48.375 L 107.5 49 L 107.5 50.375 L 106.875 51.625 L 106.125 51.875 L 106.875 51 L 107.25 50.25 L 107.25 49.375 L 107 48.75 L 106.75 48.625 Z M 106.75 48.375 "/>
<path style=" stroke:none;fill-rule:nonzero;fill:rgb(70.588237%,8.235294%,15.294118%);fill-opacity:1;" d="M 77.125 36 L 77.375 36 L 77.25 36.5 L 76.625 37.125 L 76 37.5 L 75.5 37.375 L 76 36.875 L 76.75 36.375 L 77 36.375 Z M 77.125 36 "/>
<path style=" stroke:none;fill-rule:nonzero;fill:rgb(83.92157%,8.627451%,15.294118%);fill-opacity:1;" d="M 45.75 74.125 L 46.5 74.125 L 46.25 75.375 L 45.75 75.375 Z M 45.75 74.125 "/>
<path style=" stroke:none;fill-rule:nonzero;fill:rgb(5.098039%,22.745098%,21.176471%);fill-opacity:1;" d="M 78 60.875 L 78.5 61 L 78.625 61.875 L 78 62.125 L 77.75 61.875 L 77.75 61.125 Z M 78 60.875 "/>
<path style=" stroke:none;fill-rule:nonzero;fill:rgb(90.588236%,92.941177%,92.54902%);fill-opacity:1;" d="M 40.625 88.625 L 40.875 88.75 L 40.125 89.25 L 38.375 90.125 L 37.75 90.5 L 37.5 90.375 L 37.625 90.125 L 38.5 89.75 L 39.625 89.125 Z M 40.625 88.625 "/>
<path style=" stroke:none;fill-rule:nonzero;fill:rgb(39.607844%,57.254905%,51.372552%);fill-opacity:1;" d="M 52 92.375 L 52.875 92.5 L 54.125 92.5 L 55.25 92.625 L 55.25 92.875 L 56 93 L 55.5 93.125 L 55.125 93 L 52.75 92.75 L 52 92.5 Z M 52 92.375 "/>
<path style=" stroke:none;fill-rule:nonzero;fill:rgb(47.058824%,60.000002%,56.862748%);fill-opacity:1;" d="M 96.75 65 L 97 65.125 L 96.375 65.625 L 95.75 66 L 95.375 66.375 L 95.125 67.375 L 95 67.375 L 95 66.25 L 95.5 65.75 Z M 96.75 65 "/>
<path style=" stroke:none;fill-rule:nonzero;fill:rgb(42.352942%,58.431375%,54.11765%);fill-opacity:1;" d="M 34.25 92 L 34.625 92.25 L 32.875 93.875 L 32.625 93.75 L 33.5 92.75 Z M 34.25 92 "/>
<path style=" stroke:none;fill-rule:nonzero;fill:rgb(85.490197%,8.627451%,15.294118%);fill-opacity:1;" d="M 40.125 35.875 L 40.375 36 L 39.375 36.875 L 38 38 L 37.625 38.375 L 37.375 38.25 L 39 36.75 Z M 40.125 35.875 "/>
<path style=" stroke:none;fill-rule:nonzero;fill:rgb(21.960784%,40.392157%,36.078432%);fill-opacity:1;" d="M 86.5 27.625 L 86.75 27.75 L 85.875 28.375 L 85.375 28.875 L 84.25 29.125 L 84.75 28.625 L 86.375 27.75 Z M 86.5 27.625 "/>
<path style=" stroke:none;fill-rule:nonzero;fill:rgb(24.313726%,45.09804%,38.82353%);fill-opacity:1;" d="M 56.125 92.875 L 58 93 L 58.375 93.125 L 58.375 93.375 L 56.125 93.25 Z M 56.125 92.875 "/>
<path style=" stroke:none;fill-rule:nonzero;fill:rgb(11.372549%,36.078432%,28.627452%);fill-opacity:1;" d="M 72.5 69.875 L 72.75 70 L 72.75 70.5 L 72.5 70.75 L 71.625 71 L 71.875 70.25 Z M 72.5 69.875 "/>
<path style=" stroke:none;fill-rule:nonzero;fill:rgb(35.686275%,52.549022%,47.843137%);fill-opacity:1;" d="M 103.125 63 L 103.625 63.125 L 103.625 64.125 L 103.25 64.25 L 102.875 63.75 L 103 63.25 Z M 103.125 63 "/>
<path style=" stroke:none;fill-rule:nonzero;fill:rgb(84.705883%,8.627451%,15.294118%);fill-opacity:1;" d="M 103 49.875 L 103.25 49.875 L 103.375 50.25 L 102.75 50.75 L 101.875 50.75 L 102.5 50.125 Z M 103 49.875 "/>
<path style=" stroke:none;fill-rule:nonzero;fill:rgb(3.529412%,11.764706%,14.509805%);fill-opacity:1;" d="M 80.75 42.625 L 81.125 42.75 L 80.875 42.75 L 80.75 43.25 L 79.875 43.5 L 78.875 43.375 L 79.375 43.125 L 80.25 42.875 Z M 80.75 42.625 "/>
<path style=" stroke:none;fill-rule:nonzero;fill:rgb(9.411765%,21.960784%,22.352941%);fill-opacity:1;" d="M 31.5 92 L 31.875 92 L 31.875 92.25 L 32.125 92.375 L 31.625 93.125 L 31.25 93 L 31.25 92.25 Z M 31.5 92 "/>
<path style=" stroke:none;fill-rule:nonzero;fill:rgb(6.27451%,27.450982%,23.137255%);fill-opacity:1;" d="M 92.25 59.75 L 92.5 59.875 L 92.75 60.875 L 92.625 61.125 L 92.25 61.125 L 91.875 60.375 Z M 92.25 59.75 "/>
<path style=" stroke:none;fill-rule:nonzero;fill:rgb(18.431373%,45.882353%,35.294119%);fill-opacity:1;" d="M 88.875 64.25 L 89 64.25 L 89 67.125 L 88.75 68.125 L 88.625 68.125 L 88.625 67 L 88.75 66.75 Z M 88.875 64.25 "/>
<path style=" stroke:none;fill-rule:nonzero;fill:rgb(38.431373%,57.647061%,50.588238%);fill-opacity:1;" d="M 81.625 65.125 L 82 65.25 L 81.5 65.75 L 81.25 66.75 L 81 66.375 L 80.875 65.5 Z M 81.625 65.125 "/>
<path style=" stroke:none;fill-rule:nonzero;fill:rgb(85.490197%,8.627451%,15.294118%);fill-opacity:1;" d="M 76.75 39.125 L 77 39.125 L 77 40 L 76.625 40.375 L 76.125 40.5 L 76.25 39.875 L 76.625 39.5 Z M 76.75 39.125 "/>
<path style=" stroke:none;fill-rule:nonzero;fill:rgb(6.27451%,27.450982%,23.137255%);fill-opacity:1;" d="M 101.375 58.875 L 102 59 L 101.875 59.5 L 101.5 59.875 L 101.25 59.875 L 101.25 59 Z M 101.375 58.875 "/>
<path style=" stroke:none;fill-rule:nonzero;fill:rgb(66.666669%,78.039217%,74.117649%);fill-opacity:1;" d="M 26.25 87.75 L 26.5 87.75 L 25.375 90 L 25.25 89.5 L 26 88.125 Z M 26.25 87.75 "/>
<path style=" stroke:none;fill-rule:nonzero;fill:rgb(98.823529%,98.823529%,98.823529%);fill-opacity:1;" d="M 54.625 56.875 L 55.375 57.5 L 55.5 57.875 L 55.5 58.875 L 55.25 59 L 55 57.625 L 54.625 57.125 Z M 54.625 56.875 "/>
<path style=" stroke:none;fill-rule:nonzero;fill:rgb(65.882355%,12.941177%,19.215687%);fill-opacity:1;" d="M 36.5 41.75 L 36.75 42.125 L 36.75 43 L 37.125 43.375 L 36.5 43.375 L 36.375 43.25 L 36.375 41.875 Z M 36.5 41.75 "/>
<path style=" stroke:none;fill-rule:nonzero;fill:rgb(52.941179%,64.313728%,61.56863%);fill-opacity:1;" d="M 105.625 57.25 L 106.25 57.75 L 107.5 57.5 L 107.75 57.375 L 107.5 57.875 L 105.875 58 L 105.625 57.75 Z M 105.625 57.25 "/>
<path style=" stroke:none;fill-rule:nonzero;fill:rgb(26.274511%,43.921569%,40.000001%);fill-opacity:1;" d="M 88 26.625 L 88.5 26.75 L 87.875 27.375 L 86.75 27.625 L 87.25 27.125 Z M 88 26.625 "/>
<path style=" stroke:none;fill-rule:nonzero;fill:rgb(6.27451%,32.156864%,24.705882%);fill-opacity:1;" d="M 43.375 60.375 L 44.375 60.5 L 44.5 61.125 L 43.875 61.125 L 43.375 60.625 Z M 43.375 60.375 "/>
<path style=" stroke:none;fill-rule:nonzero;fill:rgb(89.803922%,92.156863%,91.764706%);fill-opacity:1;" d="M 84.625 31.625 L 84.875 31.75 L 84.125 32.375 L 83.625 33.125 L 83.125 33.375 L 83.375 32.875 L 84.25 31.875 Z M 84.625 31.625 "/>
<path style=" stroke:none;fill-rule:nonzero;fill:rgb(39.607844%,54.901963%,50.980395%);fill-opacity:1;" d="M 80 68.375 L 80.375 68.75 L 81.125 70 L 81 70.375 L 80 68.875 Z M 80 68.375 "/>
<path style=" stroke:none;fill-rule:nonzero;fill:rgb(83.92157%,8.627451%,15.294118%);fill-opacity:1;" d="M 78.625 54.5 L 79.625 54.5 L 79.625 55 L 78.5 54.875 L 78.375 54.625 Z M 78.625 54.5 "/>
<path style=" stroke:none;fill-rule:nonzero;fill:rgb(85.09804%,88.627452%,87.843138%);fill-opacity:1;" d="M 90 28.125 L 90.25 28.25 L 88.375 29.5 L 88.125 29.5 L 88.125 29.25 Z M 90 28.125 "/>
<path style=" stroke:none;fill-rule:nonzero;fill:rgb(10.980392%,21.176471%,21.960784%);fill-opacity:1;" d="M 81.375 49.5 L 81.625 49.5 L 81.625 49.75 L 82 49.875 L 82 51 L 81.75 50.875 L 81.75 50.25 L 81.5 50.25 Z M 81.375 49.5 "/>
<path style=" stroke:none;fill-rule:nonzero;fill:rgb(40.784314%,57.254905%,52.549022%);fill-opacity:1;" d="M 76.25 88.75 L 76.5 89.125 L 75.5 89.875 L 75.25 89.75 L 76 88.875 Z M 76.25 88.75 "/>
<path style=" stroke:none;fill-rule:nonzero;fill:rgb(8.235294%,30.588236%,25.098041%);fill-opacity:1;" d="M 78.875 65.5 L 79.375 65.5 L 79.375 66.125 L 79 66.5 L 78.75 66.25 L 78.75 65.625 Z M 78.875 65.5 "/>
<path style=" stroke:none;fill-rule:nonzero;fill:rgb(74.509805%,8.627451%,15.294118%);fill-opacity:1;" d="M 67.75 40.375 L 68.5 40.5 L 69.125 41 L 69.5 41.75 L 69.25 41.75 L 68.75 41.125 L 68.75 40.875 L 67.875 40.625 Z M 67.75 40.375 "/>
<path style=" stroke:none;fill-rule:nonzero;fill:rgb(74.901962%,8.627451%,15.686275%);fill-opacity:1;" d="M 46.625 33.5 L 47.375 33.5 L 47 33.75 L 46.125 34.25 L 45.75 34.25 L 45.75 34 Z M 46.625 33.5 "/>
<path style=" stroke:none;fill-rule:nonzero;fill:rgb(28.235295%,47.450981%,42.352942%);fill-opacity:1;" d="M 30.25 96 L 30.375 96.375 L 29.625 97.5 L 29.5 96.875 Z M 30.25 96 "/>
<path style=" stroke:none;fill-rule:nonzero;fill:rgb(30.980393%,53.725493%,45.09804%);fill-opacity:1;" d="M 87.75 62.875 L 88.75 62.875 L 88.75 63.5 L 88.25 63.25 L 87.5 63.125 Z M 87.75 62.875 "/>
<path style=" stroke:none;fill-rule:nonzero;fill:rgb(95.686275%,97.647059%,97.647059%);fill-opacity:1;" d="M 106.25 55.625 L 106.75 55.75 L 105.875 56.5 L 105.75 57.25 L 105.625 57.25 L 105.625 56.25 Z M 106.25 55.625 "/>
<path style=" stroke:none;fill-rule:nonzero;fill:rgb(94.117647%,12.941177%,19.607843%);fill-opacity:1;" d="M 34.75 40.875 L 34.75 41.25 L 34 42.375 L 33.625 42.5 L 33.875 42 L 34.375 41.25 Z M 34.75 40.875 "/>
<path style=" stroke:none;fill-rule:nonzero;fill:rgb(94.117647%,9.803922%,16.862746%);fill-opacity:1;" d="M 81.25 40.125 L 81.75 40.625 L 81.875 40.875 L 81.875 41.625 L 81.625 41.5 L 81.375 40.875 L 81.25 40.75 Z M 81.25 40.125 "/>
<path style=" stroke:none;fill-rule:nonzero;fill:rgb(61.176473%,72.941178%,69.411767%);fill-opacity:1;" d="M 100.875 36.125 L 101.125 36.125 L 100.875 36.625 L 100.375 37.125 L 99.75 37.125 L 100.375 36.625 Z M 100.875 36.125 "/>
<path style=" stroke:none;fill-rule:nonzero;fill:rgb(34.117648%,55.29412%,47.843137%);fill-opacity:1;" d="M 82.375 84.25 L 82.5 84.5 L 81.5 85.375 L 81.25 85.5 L 81.375 85 L 82 84.375 Z M 82.375 84.25 "/>
<path style=" stroke:none;fill-rule:nonzero;fill:rgb(97.254902%,98.431373%,98.431373%);fill-opacity:1;" d="M 30.875 82.5 L 31.125 82.625 L 30.875 83 L 30.625 83 L 30.5 83.375 L 29.75 83.625 Z M 30.875 82.5 "/>
<path style=" stroke:none;fill-rule:nonzero;fill:rgb(26.274511%,47.843137%,40.784314%);fill-opacity:1;" d="M 86.125 79.75 L 86.375 79.875 L 86.125 80.375 L 85.5 81 L 85.5 80.375 Z M 86.125 79.75 "/>
<path style=" stroke:none;fill-rule:nonzero;fill:rgb(6.27451%,34.117648%,25.098041%);fill-opacity:1;" d="M 94.875 60.75 L 95.375 61 L 95.25 61.625 L 94.875 61.625 L 94.75 61 Z M 94.875 60.75 "/>
<path style=" stroke:none;fill-rule:nonzero;fill:rgb(90.588236%,9.019608%,16.078432%);fill-opacity:1;" d="M 81.5 35.75 L 81.875 35.875 L 81.875 36.75 L 81.5 37 Z M 81.5 35.75 "/>
<path style=" stroke:none;fill-rule:nonzero;fill:rgb(98.823529%,98.823529%,98.823529%);fill-opacity:1;" d="M 102.375 61.25 L 102.625 61.5 L 102.375 61.5 Z M 102.375 61.25 "/>
</g>
</svg>
